<?xml version="1.0" encoding="UTF-8" standalone="no"?>
<!-- Created with Inkscape (http://www.inkscape.org/) -->

<svg
   version="1.1"
   id="svg1"
   width="4000"
   height="4000"
   viewBox="0 0 4000 4000"
   sodipodi:docname="vecteezy_teeth-doodle-vector-illustration_.eps"
   xmlns:inkscape="http://www.inkscape.org/namespaces/inkscape"
   xmlns:sodipodi="http://sodipodi.sourceforge.net/DTD/sodipodi-0.dtd"
   xmlns="http://www.w3.org/2000/svg"
   xmlns:svg="http://www.w3.org/2000/svg">
  <defs
     id="defs1" />
  <sodipodi:namedview
     id="namedview1"
     pagecolor="#ffffff"
     bordercolor="#000000"
     borderopacity="0.25"
     inkscape:showpageshadow="2"
     inkscape:pageopacity="0.0"
     inkscape:pagecheckerboard="0"
     inkscape:deskcolor="#d1d1d1">
    <inkscape:page
       x="0"
       y="0"
       inkscape:label="1"
       id="page1"
       width="4000"
       height="4000"
       margin="0"
       bleed="0" />
  </sodipodi:namedview>
  <g
     id="g1"
     inkscape:groupmode="layer"
     inkscape:label="1">
    <g
       id="group-R5">
      <path
         id="path2"
         d="M 30000,0 H 0 V 30000 H 30000 V 0"
         style="fill:#ffffff;fill-opacity:1;fill-rule:nonzero;stroke:none"
         transform="matrix(0.13333333,0,0,-0.13333333,0,4000)" />
      <path
         id="path3"
         d="m 14009.4,25913 2.4,-14.8 c -125,-20 -505.4,-80.8 -638.3,-392.6 -73.8,-173 -20.3,-312.7 53.7,-506.1 6.1,-15.7 12.2,-31.8 18.4,-48.3 84.4,-223 340.5,-590.8 645.9,-709.9 2,-0.8 213,-73.2 418.2,68.8 96.4,66.8 196.5,265.5 289.4,574.7 74.1,246.7 116.2,474.3 117.4,498.9 l 0.9,16.5 c 6.4,127.3 12.5,247.5 -124.2,369.8 -233.2,208.7 -726,137 -781.4,128.2 z m 218,-1720.5 c -86.5,0 -145.7,20.4 -146.8,20.8 -314,122.5 -576.7,499.1 -663,727.3 -6.2,16.5 -12.4,32.5 -18.4,48.2 -73.6,192.4 -131.8,344.4 -53.3,528.6 139.4,327 532.1,389.8 661.2,410.4 56.8,9.1 562.6,82.5 806.1,-135.4 147.4,-131.9 140.7,-265 134.1,-393.7 l -0.8,-16.5 c -1.6,-32.9 -46.3,-265 -118.7,-506 -66.2,-220.2 -172.1,-501.5 -301.1,-590.8 -106.8,-73.9 -215.8,-92.9 -299.3,-92.9"
         style="fill:#000000;fill-opacity:1;fill-rule:nonzero;stroke:none"
         transform="matrix(0.13333333,0,0,-0.13333333,0,4000)" />
      <path
         id="path4"
         d="m 13351.1,25472.9 c 408.1,333.9 993.5,433.8 1489.2,253.8 -31.5,8.9 -63.3,16.8 -95,24.3 -95.4,21.5 -192.7,35.4 -290.2,41.1 -390.7,25 -785.4,-92.8 -1104,-319.2 v 0"
         style="fill:#000000;fill-opacity:1;fill-rule:nonzero;stroke:none"
         transform="matrix(0.13333333,0,0,-0.13333333,0,4000)" />
      <path
         id="path5"
         d="m 13613.4,25388.3 c 170.5,140.5 393.2,215 613.8,212.9 132.1,-2 265.1,-30 384.6,-86 -82.9,28.5 -168.3,48.2 -254.7,57.8 -260.2,30.4 -526.3,-39.1 -743.7,-184.7 v 0"
         style="fill:#000000;fill-opacity:1;fill-rule:nonzero;stroke:none"
         transform="matrix(0.13333333,0,0,-0.13333333,0,4000)" />
      <path
         id="path6"
         d="m 12841.1,25445.2 c -172.8,0 -346.4,-56.1 -412.5,-99.5 -3.8,-2.5 -9.8,-6 -18.1,-10.8 -275.7,-160 -393.4,-338.9 -350,-531.8 49.8,-221.3 512.5,-597.7 900.2,-732.3 104,-36.1 190.3,-36.4 256.6,-0.9 63.4,34 108.6,101.6 134.2,200.9 101.4,392.4 -72.5,1021.5 -258.2,1120.2 -74,39.2 -163,54.2 -252.2,54.2 z m 263.2,-1431.7 c -46.5,0 -97.8,9.7 -153.5,29 -402.9,139.9 -867,520.4 -919.6,754 -29.9,133 11.7,261.4 123.8,381.5 88.3,94.6 194.9,156.4 240.4,182.9 7.7,4.4 13.7,7.9 16.7,9.9 118.9,78 472,165.2 695.2,46.6 v 0 c 98.9,-52.5 193.3,-228.6 252.5,-471.2 60,-245.6 67.8,-500.9 20.8,-682.9 -27.9,-107.8 -78,-181.7 -149.1,-219.8 -37.3,-20 -79.8,-30 -127.2,-30"
         style="fill:#000000;fill-opacity:1;fill-rule:nonzero;stroke:none"
         transform="matrix(0.13333333,0,0,-0.13333333,0,4000)" />
      <path
         id="path7"
         d="m 12043.2,24881.5 c 180.2,287.6 489.5,489.4 824,544.1 47.8,7.6 95.8,12.9 144,14.5 -95.6,-12.3 -189.3,-33.8 -280.2,-63.6 -273.3,-89.1 -514.3,-266.3 -687.8,-495 v 0"
         style="fill:#000000;fill-opacity:1;fill-rule:nonzero;stroke:none"
         transform="matrix(0.13333333,0,0,-0.13333333,0,4000)" />
      <path
         id="path8"
         d="m 12303.4,24893 c 135.4,197.8 372.5,323.3 612.1,325.2 -236,-34.8 -451.7,-148.5 -612.1,-325.2 v 0"
         style="fill:#000000;fill-opacity:1;fill-rule:nonzero;stroke:none"
         transform="matrix(0.13333333,0,0,-0.13333333,0,4000)" />
      <path
         id="path9"
         d="m 11465.2,24848.9 c -221.5,0 -396.1,-96 -530.2,-290.1 -189.3,-274.1 -154.8,-620.5 -22.8,-821 145.3,-220.6 486.2,-305.8 730,-350.7 l 27.2,-5.1 c 191.1,-35.6 428.9,-80 568,79.2 88.5,101.2 115.8,236.1 88.5,437.3 -39.5,291.4 -143.8,527.1 -318.8,720.4 -54.3,60 -184.2,170.3 -326.7,203.4 v 0 c -76.2,17.7 -147.9,26.6 -215.2,26.6 z m 480.2,-1531.2 c -94.9,0 -193,18.3 -281.5,34.8 l -27.1,5.1 c -249.2,45.9 -598.1,133.5 -749.6,363.7 -69.6,105.7 -110.8,249.8 -113,395.4 -2.6,167.7 44.5,326.4 136.2,459.2 182.6,264.4 436.8,354.6 776.8,275.6 v 0 c 184.3,-42.8 326.6,-195.2 342.2,-212.5 179.2,-197.9 285.9,-438.8 326.2,-736.4 28.2,-207.7 -2.2,-354.2 -95.6,-461.1 -83.4,-95.4 -196.5,-123.8 -314.6,-123.8"
         style="fill:#000000;fill-opacity:1;fill-rule:nonzero;stroke:none"
         transform="matrix(0.13333333,0,0,-0.13333333,0,4000)" />
      <path
         id="path10"
         d="m 11749.7,24637.3 c -170.6,-11.9 -324.7,-72.1 -459.9,-176.5 111.9,128.3 290.9,197.7 459.9,176.5 v 0"
         style="fill:#000000;fill-opacity:1;fill-rule:nonzero;stroke:none"
         transform="matrix(0.13333333,0,0,-0.13333333,0,4000)" />
      <path
         id="path11"
         d="m 11141.2,24288.9 c -70.7,-148.9 -95.9,-310.5 -74.3,-473.9 -53.7,156.7 -24.7,341.2 74.3,473.9 v 0"
         style="fill:#000000;fill-opacity:1;fill-rule:nonzero;stroke:none"
         transform="matrix(0.13333333,0,0,-0.13333333,0,4000)" />
      <path
         id="path12"
         d="m 10688.7,23537.7 c -189.7,0 -422.5,-64.1 -584.9,-209.6 -182.76,-163.7 -238.14,-372 -164.59,-619 105.19,-353.2 492.79,-481 679.09,-542.4 160,-52.8 655.8,-126.4 824.6,20.5 l 0.6,0.6 c 44.8,38.8 192.1,182.4 206.2,396.5 10.7,161.1 -78.6,272.2 -191.7,412.9 -20.5,25.5 -41.7,51.8 -63,79.5 -185.3,239.9 -311.3,389.8 -556.1,445.6 -44.7,10.1 -95.7,15.4 -150.2,15.4 z m 397.2,-1467.2 c -187,0 -383,36.7 -477,67.7 -127.8,42.1 -263.3,92.2 -388.6,173.2 -159.4,103 -263.63,233.9 -309.84,389.1 -76.07,255.5 -16.13,480.2 173.34,650 l 10,-11.2 -10,11.2 c 218.8,196 548.8,249.5 761.8,201 249.7,-56.8 383.1,-210.4 573.1,-456.5 21.2,-27.4 42.3,-53.6 62.7,-79 112.5,-140 209.7,-260.9 198.3,-433.7 -14.9,-225.7 -169.5,-376.4 -216.5,-417.2 l -0.6,-0.6 c -80.6,-70.1 -225.7,-94 -376.7,-94"
         style="fill:#000000;fill-opacity:1;fill-rule:nonzero;stroke:none"
         transform="matrix(0.13333333,0,0,-0.13333333,0,4000)" />
      <path
         id="path13"
         d="m 10696.2,23224.6 c 170,-189.3 394.1,-324.2 640.8,-385.9 -254.4,30.4 -494.8,175.3 -640.8,385.9 v 0"
         style="fill:#000000;fill-opacity:1;fill-rule:nonzero;stroke:none"
         transform="matrix(0.13333333,0,0,-0.13333333,0,4000)" />
      <path
         id="path14"
         d="m 10366.5,22527.6 c 156.3,59 341.7,29.1 474.7,-71.4 44.6,-33.2 83.5,-73.7 113.6,-119.7 -37.5,40.1 -78.6,75.8 -123.7,105.4 -135.7,90.5 -305.3,118.4 -464.6,85.7 v 0"
         style="fill:#000000;fill-opacity:1;fill-rule:nonzero;stroke:none"
         transform="matrix(0.13333333,0,0,-0.13333333,0,4000)" />
      <path
         id="path15"
         d="m 11053.6,22940.1 c -102.1,-36.4 -194.5,-102.5 -246.3,-198.5 -40.6,-74.3 -54.1,-159.5 -46.3,-244.1 -13.9,47.2 -16.3,98.1 -8.5,147.5 20.9,150.9 152.7,272.8 301.1,295.1 v 0"
         style="fill:#000000;fill-opacity:1;fill-rule:nonzero;stroke:none"
         transform="matrix(0.13333333,0,0,-0.13333333,0,4000)" />
      <path
         id="path16"
         d="m 9240.5,21742.2 c -45.08,-264.9 65.22,-484.3 337.19,-670.7 177.17,-120.4 460.21,-225.5 794.11,-225.5 111.4,0 228.4,11.7 349.1,38.4 72.8,16.1 245.9,83.9 282.2,364.3 17.5,135.3 -12,261.3 -83,354.8 -173.7,228.8 -391.7,425.2 -495.8,501.5 -117,85.6 -226.4,135.4 -439.33,136.3 -1.27,0 -2.57,0 -3.83,0 -210.76,0 -404.11,-75.4 -574.81,-224.2 -87.49,-76.3 -153.02,-199.7 -165.83,-274.9 z m 1131.7,-926.2 c -341,0 -630.18,107.6 -811.41,230.7 -282.69,193.8 -397.11,422.9 -349.86,700.5 v 0 c 13.5,79.3 79.67,208.8 175.69,292.5 176.31,153.7 376.31,231.6 594.5,231.6 1.33,0 2.65,0 3.98,0 220.1,-1 338,-55.1 456.9,-142.1 105.5,-77.3 326.3,-276.3 502,-507.5 75.8,-99.9 107.4,-233.7 88.9,-376.9 -38.8,-299.2 -226.5,-372.2 -305.5,-389.7 -122.7,-27.2 -241.9,-39.1 -355.2,-39.1"
         style="fill:#000000;fill-opacity:1;fill-rule:nonzero;stroke:none"
         transform="matrix(0.13333333,0,0,-0.13333333,0,4000)" />
      <path
         id="path17"
         d="m 10014.2,21963.4 c 73.8,-136.2 184.3,-251.6 322.2,-322.6 82.4,-43.4 171.7,-70.1 264.3,-83.7 -62.7,-0.4 -125.6,10.2 -185.8,29.3 -180.8,56.7 -335.1,198.9 -400.7,377 v 0"
         style="fill:#000000;fill-opacity:1;fill-rule:nonzero;stroke:none"
         transform="matrix(0.13333333,0,0,-0.13333333,0,4000)" />
      <path
         id="path18"
         d="m 9688.36,21281.1 c 152.93,90.8 359.14,81 503.44,-23.2 48.3,-34.1 90.2,-77 121.4,-126.3 -57.8,65 -127.2,117.6 -207,150.8 -132.46,56.9 -284.46,51.7 -417.84,-1.3 v 0"
         style="fill:#000000;fill-opacity:1;fill-rule:nonzero;stroke:none"
         transform="matrix(0.13333333,0,0,-0.13333333,0,4000)" />
      <path
         id="path19"
         d="m 10321.3,21639.8 c -132.2,-73.6 -208.8,-204.5 -213.8,-355 -31,148.9 66.5,314 213.8,355 v 0"
         style="fill:#000000;fill-opacity:1;fill-rule:nonzero;stroke:none"
         transform="matrix(0.13333333,0,0,-0.13333333,0,4000)" />
      <path
         id="path20"
         d="m 9390.46,20893.5 c -85.08,0 -160.19,-7.1 -203.67,-20.5 -3.5,-1.1 -7.69,-2.3 -12.5,-3.6 -243.71,-69 -367.7,-285.6 -368.52,-643.8 -0.35,-154.8 -50.55,-243.7 -99.1,-329.7 -51.96,-92 -105.69,-187.1 -100.53,-369 8.27,-291.4 251.8,-396 620.43,-554.2 l 12.99,-5.6 c 92.65,-39.7 162.54,-77.8 224.21,-111.5 131.62,-71.7 218.69,-119 399.13,-115.4 260.2,5.4 388.4,191.5 457.2,291.4 l 5,7.1 c 162.7,235.7 224.4,392.5 265.2,496.2 69.2,175.7 84.8,340.4 47.8,503.2 -53.7,236 -182.8,350.8 -296.6,452.2 -21.1,18.8 -40.9,36.5 -60.2,54.8 -67.9,64.3 -256.3,222.8 -539.71,306.1 -98.19,28.9 -234.08,42.3 -351.13,42.3 z M 9843.73,18710 c -175.53,0 -268.02,50.5 -394.32,119.3 -61.09,33.3 -130.32,71.1 -221.69,110.3 l -12.98,5.6 c -365.61,156.9 -629.77,270.3 -638.58,580.9 -5.4,190.2 50.41,289 104.39,384.6 48.79,86.4 94.89,168 95.22,315 0.54,238.2 54.93,418.8 161.66,536.6 86.79,95.8 186.23,123.9 228.69,135.9 4.54,1.3 8.51,2.4 11.81,3.5 v 0 c 109.41,33.7 394.89,30.4 572.12,-21.7 289.65,-85.1 482.45,-247.4 551.85,-313.2 19,-17.9 38.7,-35.5 59.5,-54.1 117.2,-104.3 250.1,-222.6 305.9,-467.9 38.5,-169 22.4,-339.4 -49.1,-520.9 -41.3,-105 -103.7,-263.7 -268.5,-502.2 l -4.9,-7.1 c -66.7,-96.9 -205.7,-298.6 -481.28,-304.4 -6.71,-0.1 -13.31,-0.2 -19.79,-0.2"
         style="fill:#000000;fill-opacity:1;fill-rule:nonzero;stroke:none"
         transform="matrix(0.13333333,0,0,-0.13333333,0,4000)" />
      <path
         id="path21"
         d="m 10097.6,20429.4 c -11.9,-33.8 -17,-69.4 -28.4,-103.8 -10.9,-34.5 -28.7,-67 -51.4,-95.4 -44.97,-57.1 -107.99,-95.3 -162.17,-142.1 -53.33,-45.6 -105.94,-95.2 -141.19,-156.1 -36.39,-60.8 -39.06,-133.8 -43.37,-203 -2.44,-103.7 0.98,-215.9 54.78,-306.8 18.33,-30 46.42,-48.7 78.38,-62.7 31.92,-14.3 66.06,-24.2 100.64,-31.8 104.43,-21.4 213.73,-25.7 318.33,-1.9 -131.9,-38.5 -297.36,-33.3 -426.04,17.5 -77.89,28.4 -111.16,94.3 -130.3,170 -17.16,71 -21.02,144.1 -18.18,216.7 3.52,54.6 6.73,109.6 23.83,162.2 31.94,87 102.38,152.1 172.19,209.2 83.98,67.3 180.8,118.4 219.1,226.1 12.5,33.3 19.8,68.8 33.8,101.9 v 0"
         style="fill:#000000;fill-opacity:1;fill-rule:nonzero;stroke:none"
         transform="matrix(0.13333333,0,0,-0.13333333,0,4000)" />
      <path
         id="path22"
         d="m 8974.93,20013.8 c 111.45,-51.1 225.29,-95.2 344.02,-125.2 118.41,-31.2 239.37,-47.6 361.7,-55.6 -245.93,-18.7 -498.36,47.9 -705.72,180.8 v 0"
         style="fill:#000000;fill-opacity:1;fill-rule:nonzero;stroke:none"
         transform="matrix(0.13333333,0,0,-0.13333333,0,4000)" />
      <path
         id="path23"
         d="m 9810.52,20595.1 c 82.74,-145.1 107.57,-324.4 66.77,-486.4 3.16,82.7 2.19,164.7 -9.58,246.4 -10.67,82 -31.84,161.1 -57.19,240 v 0"
         style="fill:#000000;fill-opacity:1;fill-rule:nonzero;stroke:none"
         transform="matrix(0.13333333,0,0,-0.13333333,0,4000)" />
      <path
         id="path24"
         d="m 9717.98,20628.8 c 74.98,-39.2 151.9,-54.5 235.65,-39.3 -73.24,-47.9 -180.66,-27.3 -235.65,39.3 v 0"
         style="fill:#000000;fill-opacity:1;fill-rule:nonzero;stroke:none"
         transform="matrix(0.13333333,0,0,-0.13333333,0,4000)" />
      <path
         id="path25"
         d="m 9092.36,19293.9 c 101.36,-122.4 231.68,-205.6 384.89,-247.4 -158.54,8.9 -311.17,106.7 -384.89,247.4 v 0"
         style="fill:#000000;fill-opacity:1;fill-rule:nonzero;stroke:none"
         transform="matrix(0.13333333,0,0,-0.13333333,0,4000)" />
      <path
         id="path26"
         d="m 9253.77,19127 c 196.23,24.9 363.49,121.8 480.78,281.4 -86.58,-176.6 -284.72,-291.4 -480.78,-281.4 v 0"
         style="fill:#000000;fill-opacity:1;fill-rule:nonzero;stroke:none"
         transform="matrix(0.13333333,0,0,-0.13333333,0,4000)" />
      <path
         id="path27"
         d="m 8655.81,18814.8 8,-12.7 c -115.54,-72.9 -267.33,-219.4 -251.76,-648.9 5.65,-155.9 -16.32,-261.1 -35.7,-353.9 -22.55,-107.8 -40.35,-193 -5.56,-317.8 50.51,-181.2 219.53,-253.4 566.55,-364.7 306.09,-98.1 554.9,-116.7 719.54,-53.8 187.9,71.8 305.39,259.3 330.84,527.9 7.32,77.3 20.28,153.9 32.78,228.1 23.8,140.7 46.3,273.7 29.8,398.7 -7.4,56.3 -40.7,199.4 -190.59,314 -116.65,89.2 -268.73,145.8 -461.27,217.4 l -47.53,17.7 c -322.85,120.6 -534.76,131.5 -687.1,35.3 z m 773.34,-1818.2 c -141.78,0 -310.83,30.7 -500.97,91.7 -326.06,104.5 -528.82,179 -586.3,385.2 -36.74,131.7 -17.35,224.5 5.1,332 19.03,91.1 40.61,194.3 35.09,346.6 -16.14,444.9 143.93,598.6 265.73,675.4 161.04,101.6 381.13,91.6 713.61,-32.6 l 47.49,-17.7 c 194.89,-72.5 348.82,-129.7 469.04,-221.7 158.76,-121.4 194.26,-273.9 202.16,-333.8 17,-129.6 -5.8,-264.7 -30,-407.7 -12.4,-73.6 -25.3,-149.7 -32.5,-225.9 -26.59,-280.6 -150.89,-477 -350.02,-553.1 -67.03,-25.6 -147.08,-38.4 -238.43,-38.4"
         style="fill:#000000;fill-opacity:1;fill-rule:nonzero;stroke:none"
         transform="matrix(0.13333333,0,0,-0.13333333,0,4000)" />
      <path
         id="path28"
         d="m 8640.41,17997.8 c 114.69,-110.7 276.94,-196.9 439.56,-166.2 106.15,21.6 191.76,100.1 250.51,188 75.2,113.1 114.02,250.6 103.42,386.6 -2.1,27.3 -5.67,54.5 -10.81,81.6 29.7,-105.9 30.55,-221.8 -4.04,-328.4 -50.17,-156.6 -165.55,-314.5 -335.05,-348.6 -168.72,-29.4 -335.18,63.6 -443.59,187 v 0"
         style="fill:#000000;fill-opacity:1;fill-rule:nonzero;stroke:none"
         transform="matrix(0.13333333,0,0,-0.13333333,0,4000)" />
      <path
         id="path29"
         d="m 9257.01,18616.7 c 47.39,-71.9 120.71,-124.2 206.39,-136.6 28.04,-4.1 56.85,-4.7 86.35,-2 -112.96,-48.9 -258.82,20.4 -292.74,138.6 v 0"
         style="fill:#000000;fill-opacity:1;fill-rule:nonzero;stroke:none"
         transform="matrix(0.13333333,0,0,-0.13333333,0,4000)" />
      <path
         id="path30"
         d="m 9181.33,17865.6 c 15.32,-68.1 33.32,-134.3 60.7,-198.2 26.43,-64.2 61.01,-123.7 99.29,-182 -103.87,95.5 -163.42,239.4 -159.99,380.2 v 0"
         style="fill:#000000;fill-opacity:1;fill-rule:nonzero;stroke:none"
         transform="matrix(0.13333333,0,0,-0.13333333,0,4000)" />
      <path
         id="path31"
         d="m 8980.72,17317.5 c 196.09,178.6 487.33,246.8 742.63,175.6 -260.8,38.5 -527.02,-23.6 -742.63,-175.6 v 0"
         style="fill:#000000;fill-opacity:1;fill-rule:nonzero;stroke:none"
         transform="matrix(0.13333333,0,0,-0.13333333,0,4000)" />
      <path
         id="path32"
         d="m 8809.05,17315 c 89.25,55 220.58,17.9 261.92,-80.1 -70.42,75.6 -161.58,100.5 -261.92,80.1 v 0"
         style="fill:#000000;fill-opacity:1;fill-rule:nonzero;stroke:none"
         transform="matrix(0.13333333,0,0,-0.13333333,0,4000)" />
      <path
         id="path33"
         d="m 8559.95,17026 3.25,-14.6 c -193.07,-42.9 -275.86,-113.4 -303.07,-136.6 l -0.78,-0.6 c -13.25,-11.3 -130.4,-115.4 -162.11,-293.7 -12.43,-69.9 -7.9,-110 -2.66,-156.4 4.66,-41.3 9.95,-88.1 4.44,-163.7 -7.46,-102.3 -29.09,-164.5 -48.18,-219.4 -20.58,-59.2 -36.83,-106 -29.57,-185.1 14.74,-160.6 148.68,-274.6 225.5,-316.6 113.06,-61.9 370.11,-95.6 611.22,-80.3 289.24,18.4 498.11,101.1 573.07,226.8 33.63,56.4 47.59,124.9 62.35,197.4 10.54,51.7 21.43,105.1 40.16,157.1 107.01,297.1 117.16,448 106.85,522.3 -31.92,229.8 -284.61,344.4 -295.35,349.2 -302.84,134.4 -610.45,137.7 -781.87,99.6 z m 181.83,-1600.6 c -208.26,0 -410.61,33.5 -509.41,87.6 -82.02,44.9 -225.08,167 -240.97,340.2 -7.86,85.5 10.2,137.5 31.1,197.6 18.48,53.2 39.43,113.4 46.6,211.8 5.31,72.8 0.18,118.1 -4.33,158.1 -5.5,48.8 -10.26,90.8 2.93,165 33.55,188.7 158.11,299.3 172.21,311.3 l 0.77,0.7 c 28.61,24.3 115.67,98.5 316.02,143 175.86,39 491.04,35.9 800.55,-101.5 11.36,-5 278.7,-126.3 312.88,-372.4 15.69,-113 -20.76,-293.5 -108.34,-536.7 -17.99,-49.9 -28.66,-102.3 -38.98,-152.9 -15.29,-75.1 -29.74,-145.9 -65.99,-206.7 -109.66,-184 -421.06,-230.3 -596.93,-241.4 -39.13,-2.5 -78.73,-3.7 -118.11,-3.7"
         style="fill:#000000;fill-opacity:1;fill-rule:nonzero;stroke:none"
         transform="matrix(0.13333333,0,0,-0.13333333,0,4000)" />
      <path
         id="path34"
         d="m 9039.88,16738.9 c 2.23,-97.1 -16.86,-193.5 -34.71,-288.6 -9.52,-47.7 -22.03,-95.5 -42.32,-140.8 -20.62,-45.6 -51.04,-89.3 -95.5,-115.1 -88.14,-45.9 -192.34,-52.5 -289.61,-43.5 -97.41,9.7 -192.66,37.6 -278.92,81.9 89.55,-35.8 184.41,-57.7 280.38,-64.1 93.86,-5.2 192.32,1.5 276.95,45.1 40.38,22.9 67.72,63 87.55,104.5 20.31,42.7 33.15,89 44.48,135.8 20.9,94.1 45.07,188.3 51.7,284.8 v 0"
         style="fill:#000000;fill-opacity:1;fill-rule:nonzero;stroke:none"
         transform="matrix(0.13333333,0,0,-0.13333333,0,4000)" />
      <path
         id="path35"
         d="m 8855.15,16207.9 c 54.32,-208.1 -14.73,-442.6 -167.05,-593.2 127.03,173.4 188.2,378.6 167.05,593.2 v 0"
         style="fill:#000000;fill-opacity:1;fill-rule:nonzero;stroke:none"
         transform="matrix(0.13333333,0,0,-0.13333333,0,4000)" />
      <path
         id="path36"
         d="m 8857.43,16025.8 c 183.86,-64.3 374.27,-40.1 538.18,64.3 -141.32,-132 -369.91,-160.5 -538.18,-64.3 v 0"
         style="fill:#000000;fill-opacity:1;fill-rule:nonzero;stroke:none"
         transform="matrix(0.13333333,0,0,-0.13333333,0,4000)" />
      <path
         id="path37"
         d="m 8920.87,16805 c 84.87,-43.8 175.79,-67.2 271.25,-69.9 -93.13,-29.8 -204,-1 -271.25,69.9 v 0"
         style="fill:#000000;fill-opacity:1;fill-rule:nonzero;stroke:none"
         transform="matrix(0.13333333,0,0,-0.13333333,0,4000)" />
      <path
         id="path38"
         d="m 8772.92,15748.8 c 51.02,-45.8 103.63,-84.7 162.2,-120.3 -70.08,5.6 -136.34,55 -162.2,120.3 v 0"
         style="fill:#000000;fill-opacity:1;fill-rule:nonzero;stroke:none"
         transform="matrix(0.13333333,0,0,-0.13333333,0,4000)" />
      <path
         id="path39"
         d="m 15732.6,25917.1 c -173,0 -392.1,-27.4 -525.8,-147.1 -136.7,-122.3 -130.6,-242.6 -124.2,-369.8 l 0.9,-16.5 c 1.2,-24.6 43.3,-252.2 117.4,-498.9 92.9,-309.2 193,-507.9 289.4,-574.7 205.2,-142 416.1,-69.6 418.2,-68.8 305.4,119.1 561.5,486.9 645.9,709.9 6.2,16.5 12.3,32.6 18.4,48.3 74,193.4 127.5,333.1 53.7,506.1 -132.9,311.8 -513.3,372.6 -638.3,392.6 -23.6,3.7 -126.9,18.9 -255.6,18.9 z m 39.9,-1724.6 c -83.4,0 -192.3,18.9 -299.2,92.9 -129,89.3 -234.9,370.6 -301.1,590.8 -72.4,241 -117.1,473.1 -118.7,506 l -0.8,16.4 c -6.6,128.8 -13.3,261.9 134.1,393.8 243.5,217.9 749.3,144.5 806.1,135.4 129.1,-20.6 521.8,-83.4 661.2,-410.4 78.5,-184.2 20.3,-336.2 -53.3,-528.6 -6,-15.7 -12.2,-31.8 -18.4,-48.2 -86.3,-228.2 -349,-604.7 -663,-727.3 -1.1,-0.4 -60.3,-20.8 -146.9,-20.8"
         style="fill:#000000;fill-opacity:1;fill-rule:nonzero;stroke:none"
         transform="matrix(0.13333333,0,0,-0.13333333,0,4000)" />
      <path
         id="path40"
         d="m 16648.9,25472.9 c -318.6,226.4 -713.3,344.2 -1104,319.2 -97.5,-5.7 -194.8,-19.6 -290.2,-41.1 -31.7,-7.5 -63.5,-15.4 -95,-24.3 495.7,180 1081.1,80.1 1489.2,-253.8 v 0"
         style="fill:#000000;fill-opacity:1;fill-rule:nonzero;stroke:none"
         transform="matrix(0.13333333,0,0,-0.13333333,0,4000)" />
      <path
         id="path41"
         d="m 16386.6,25388.3 c -217.3,145.6 -483.5,215.1 -743.7,184.7 -86.4,-9.6 -171.8,-29.3 -254.7,-57.8 159.8,74.7 342.2,100.1 517.2,78.3 174.8,-22.7 345.1,-93 481.2,-205.2 v 0"
         style="fill:#000000;fill-opacity:1;fill-rule:nonzero;stroke:none"
         transform="matrix(0.13333333,0,0,-0.13333333,0,4000)" />
      <path
         id="path42"
         d="m 16906.7,25391 v 0 c -185.7,-98.7 -359.6,-727.8 -258.2,-1120.2 25.6,-99.3 70.8,-166.9 134.2,-200.9 66.3,-35.5 152.6,-35.2 256.6,0.9 387.7,134.6 850.4,511 900.2,732.3 43.4,192.9 -74.3,371.8 -350,531.8 -8.3,4.8 -14.3,8.3 -18.1,10.8 -100.3,65.8 -447.4,160.6 -664.7,45.3 z m -11,-1377.5 c -47.4,0 -89.9,10 -127.2,30 -71.1,38.1 -121.2,112 -149.1,219.8 -47,182 -39.2,437.3 20.8,682.9 59.2,242.6 153.6,418.7 252.5,471.2 v 0 c 223.2,118.6 576.3,31.4 695.2,-46.6 3,-2 9,-5.5 16.6,-9.9 45.6,-26.5 152.2,-88.3 240.5,-182.9 112.1,-120.1 153.7,-248.5 123.8,-381.5 -52.6,-233.6 -516.7,-614.1 -919.6,-754 -55.7,-19.3 -107,-29 -153.5,-29"
         style="fill:#000000;fill-opacity:1;fill-rule:nonzero;stroke:none"
         transform="matrix(0.13333333,0,0,-0.13333333,0,4000)" />
      <path
         id="path43"
         d="m 17956.8,24881.5 c -173.5,228.7 -414.5,405.9 -687.8,495 -90.9,29.8 -184.6,51.3 -280.2,63.6 48.2,-1.6 96.2,-6.9 144,-14.5 334.5,-54.7 643.8,-256.6 824,-544.1 v 0"
         style="fill:#000000;fill-opacity:1;fill-rule:nonzero;stroke:none"
         transform="matrix(0.13333333,0,0,-0.13333333,0,4000)" />
      <path
         id="path44"
         d="m 17696.6,24893 c -160.5,176.7 -376.1,290.4 -612.1,325.2 239.6,-1.9 476.7,-127.4 612.1,-325.2 v 0"
         style="fill:#000000;fill-opacity:1;fill-rule:nonzero;stroke:none"
         transform="matrix(0.13333333,0,0,-0.13333333,0,4000)" />
      <path
         id="path45"
         d="m 18319.6,24822.3 c -142.5,-33.1 -272.4,-143.4 -326.7,-203.4 -175,-193.3 -279.3,-429 -318.8,-720.4 -27.3,-201.2 0,-336.1 88.5,-437.3 139.1,-159.2 376.9,-114.8 568,-79.2 l 27.2,5.1 c 243.8,44.9 584.8,130.1 730,350.7 132,200.5 166.5,546.9 -22.8,821 -174.9,253.2 -418.7,339.3 -745.4,263.5 z m -265,-1504.6 c -118.1,0 -231.2,28.4 -314.6,123.8 -93.4,106.9 -123.8,253.4 -95.6,461.1 40.3,297.6 147,538.5 326.2,736.4 15.6,17.3 157.9,169.7 342.2,212.5 340.1,79 594.2,-11.2 776.8,-275.6 91.7,-132.8 138.8,-291.5 136.2,-459.2 -2.2,-145.6 -43.4,-289.7 -113,-395.4 -151.5,-230.2 -500.4,-317.8 -749.6,-363.7 l -27.1,-5.1 c -88.5,-16.5 -186.6,-34.8 -281.5,-34.8"
         style="fill:#000000;fill-opacity:1;fill-rule:nonzero;stroke:none"
         transform="matrix(0.13333333,0,0,-0.13333333,0,4000)" />
      <path
         id="path46"
         d="m 18250.3,24637.3 c 169,21.2 348,-48.2 459.9,-176.5 -135.2,104.5 -289.3,164.6 -459.9,176.5 v 0"
         style="fill:#000000;fill-opacity:1;fill-rule:nonzero;stroke:none"
         transform="matrix(0.13333333,0,0,-0.13333333,0,4000)" />
      <path
         id="path47"
         d="m 18858.8,24288.9 c 99,-132.7 128,-317.2 74.4,-473.9 21.5,163.4 -3.7,325 -74.4,473.9 v 0"
         style="fill:#000000;fill-opacity:1;fill-rule:nonzero;stroke:none"
         transform="matrix(0.13333333,0,0,-0.13333333,0,4000)" />
      <path
         id="path48"
         d="m 19311.3,23537.7 c -54.5,0 -105.5,-5.3 -150.2,-15.4 -244.8,-55.8 -370.8,-205.7 -556.1,-445.6 -21.3,-27.7 -42.5,-54 -63,-79.5 -113.1,-140.7 -202.4,-251.8 -191.7,-412.9 14.1,-214.2 161.4,-357.7 206.2,-396.5 l 0.6,-0.6 c 168.7,-146.9 664.6,-73.3 824.6,-20.5 186.3,61.4 573.9,189.2 679.1,542.4 73.5,247 18.2,455.3 -164.6,619 -162.4,145.5 -395.2,209.6 -584.9,209.6 z m -397.2,-1467.2 c -151,0 -296.1,23.9 -376.7,94 l -0.6,0.6 c -47,40.8 -201.6,191.5 -216.5,417.2 -11.4,172.8 85.8,293.7 198.3,433.7 20.4,25.4 41.5,51.6 62.7,79 190,246.1 323.4,399.7 573.1,456.5 212.9,48.5 543,-5 761.8,-201 189.5,-169.8 249.4,-394.5 173.3,-650 -46.2,-155.2 -150.4,-286.1 -309.8,-389.1 -125.3,-81 -260.8,-131.1 -388.6,-173.2 -94,-31 -290.1,-67.7 -477,-67.7"
         style="fill:#000000;fill-opacity:1;fill-rule:nonzero;stroke:none"
         transform="matrix(0.13333333,0,0,-0.13333333,0,4000)" />
      <path
         id="path49"
         d="m 19303.8,23224.6 c -146,-210.6 -386.4,-355.5 -640.8,-385.9 246.7,61.7 470.8,196.6 640.8,385.9 v 0"
         style="fill:#000000;fill-opacity:1;fill-rule:nonzero;stroke:none"
         transform="matrix(0.13333333,0,0,-0.13333333,0,4000)" />
      <path
         id="path50"
         d="m 19633.5,22527.6 c -159.3,32.7 -328.9,4.8 -464.6,-85.7 -45.1,-29.6 -86.2,-65.3 -123.7,-105.4 30.1,46 69,86.5 113.6,119.7 132.9,100.5 318.4,130.4 474.7,71.4 v 0"
         style="fill:#000000;fill-opacity:1;fill-rule:nonzero;stroke:none"
         transform="matrix(0.13333333,0,0,-0.13333333,0,4000)" />
      <path
         id="path51"
         d="m 18946.4,22940.1 c 148.4,-22.3 280.2,-144.2 301.1,-295.1 7.8,-49.4 5.4,-100.3 -8.5,-147.5 7.8,84.5 -5.7,169.8 -46.3,244.1 -51.8,96 -144.2,162.1 -246.3,198.5 v 0"
         style="fill:#000000;fill-opacity:1;fill-rule:nonzero;stroke:none"
         transform="matrix(0.13333333,0,0,-0.13333333,0,4000)" />
      <path
         id="path52"
         d="m 20018.9,22241.3 c -1.3,0 -2.6,0 -3.9,0 -212.9,-0.9 -322.3,-50.7 -439.3,-136.3 -104.1,-76.3 -322.1,-272.7 -495.8,-501.5 -71,-93.5 -100.5,-219.5 -83,-354.9 36.3,-280.3 209.4,-348.1 282.2,-364.2 482.5,-106.8 906.9,26.6 1143.3,187.1 271.9,186.4 382.2,405.8 337.1,670.7 -12.8,75.2 -78.3,198.6 -165.8,274.9 -170.7,148.8 -364.1,224.2 -574.8,224.2 z M 19627.8,20816 c -113.4,0 -232.5,11.9 -355.2,39.1 -79,17.5 -266.7,90.5 -305.5,389.7 -18.5,143.2 13.1,277 88.9,376.9 175.7,231.2 396.5,430.2 502,507.5 118.9,87 236.8,141.1 456.9,142.1 1.3,0 2.7,0 4,0 218.2,0 418.2,-77.9 594.5,-231.6 96,-83.7 162.2,-213.2 175.7,-292.5 v 0 c 47.2,-277.6 -67.2,-506.7 -349.8,-700.5 -181.3,-123.1 -470.5,-230.7 -811.5,-230.7"
         style="fill:#000000;fill-opacity:1;fill-rule:nonzero;stroke:none"
         transform="matrix(0.13333333,0,0,-0.13333333,0,4000)" />
      <path
         id="path53"
         d="m 19985.8,21963.4 c -65.6,-178.1 -219.9,-320.3 -400.7,-377 -60.2,-19.1 -123.1,-29.7 -185.8,-29.3 92.6,13.6 181.9,40.3 264.3,83.7 137.9,71 248.4,186.4 322.2,322.6 v 0"
         style="fill:#000000;fill-opacity:1;fill-rule:nonzero;stroke:none"
         transform="matrix(0.13333333,0,0,-0.13333333,0,4000)" />
      <path
         id="path54"
         d="m 20311.6,21281.1 c -146.6,58.9 -316,57.4 -456.6,-16.6 -63.6,-33.5 -119.9,-78.4 -168.2,-132.9 31.2,49.3 73.1,92.2 121.4,126.3 144.3,104.2 350.5,114 503.4,23.2 v 0"
         style="fill:#000000;fill-opacity:1;fill-rule:nonzero;stroke:none"
         transform="matrix(0.13333333,0,0,-0.13333333,0,4000)" />
      <path
         id="path55"
         d="m 19678.7,21639.8 c 147.3,-41 244.8,-206.1 213.8,-355 -1.9,37.1 -7.1,73.2 -16.8,108 -28.5,105.6 -101.6,193.7 -197,247 v 0"
         style="fill:#000000;fill-opacity:1;fill-rule:nonzero;stroke:none"
         transform="matrix(0.13333333,0,0,-0.13333333,0,4000)" />
      <path
         id="path56"
         d="m 20609.5,20893.5 c -117,0 -252.9,-13.4 -351.1,-42.3 -283.4,-83.3 -471.8,-241.8 -539.7,-306.1 -19.3,-18.3 -39.1,-36 -60.2,-54.8 -113.8,-101.3 -242.9,-216.2 -296.6,-452.2 -37,-162.9 -21.4,-327.5 47.8,-503.2 40.8,-103.7 102.5,-260.5 265.2,-496.2 l 5,-7.1 c 68.8,-100 197,-286 457.2,-291.4 180.6,-3.7 267.5,43.7 399.1,115.4 61.7,33.7 131.6,71.8 224.2,111.5 l 13,5.6 c 368.7,158.2 612.2,262.8 620.5,554.2 5.1,181.9 -48.6,277 -100.6,369 -48.5,86 -98.7,174.9 -99.1,329.7 -0.8,358.2 -124.8,574.8 -368.5,643.8 -4.8,1.3 -9,2.5 -12.5,3.6 v 0 c -43.5,13.4 -118.6,20.5 -203.7,20.5 z M 20156.3,18710 c -6.5,0 -13.1,0.1 -19.8,0.2 -275.6,5.8 -414.5,207.4 -481.3,304.4 l -4.9,7.1 c -164.8,238.5 -227.2,397.2 -268.6,502.2 -71.4,181.5 -87.5,351.9 -49,520.9 55.8,245.3 188.7,363.6 305.9,467.9 20.8,18.6 40.5,36.2 59.5,54.1 69.4,65.8 262.2,228.1 551.8,313.2 177.3,52.1 462.8,55.4 572.2,21.7 v 0 c 3.3,-1.1 7.2,-2.2 11.8,-3.5 42.4,-12 141.9,-40.1 228.7,-135.9 106.7,-117.8 161.1,-298.4 161.6,-536.6 0.4,-147 46.5,-228.6 95.3,-315 53.9,-95.6 109.7,-194.4 104.3,-384.6 -8.8,-310.6 -272.9,-424 -638.5,-580.9 l -13,-5.6 c -91.4,-39.2 -160.6,-77 -221.7,-110.3 -126.3,-68.8 -218.8,-119.3 -394.3,-119.3"
         style="fill:#000000;fill-opacity:1;fill-rule:nonzero;stroke:none"
         transform="matrix(0.13333333,0,0,-0.13333333,0,4000)" />
      <path
         id="path57"
         d="m 19902.4,20429.4 c 14,-33.1 21.3,-68.6 33.8,-101.9 38.3,-107.8 135.1,-158.8 219.1,-226.1 69.8,-57.1 140.3,-122.3 172.2,-209.2 17.1,-52.6 20.3,-107.6 23.8,-162.2 2.9,-72.6 -1,-145.7 -18.2,-216.7 -19.1,-75.7 -52.3,-141.5 -130.3,-170 -128.5,-50.8 -294.2,-56 -426,-17.5 132.9,-29.3 293.4,-18.9 419,33.7 71.2,27.9 99.6,88.1 116.5,158.9 16.1,68.4 19.4,139.9 16.6,210.6 -3,52.1 -6,106.3 -21.8,156.1 -29.8,83.3 -97,146.3 -162.7,203 -84.5,70.6 -179.2,125 -213.6,237.5 -11.4,34.4 -16.6,70 -28.4,103.8 v 0"
         style="fill:#000000;fill-opacity:1;fill-rule:nonzero;stroke:none"
         transform="matrix(0.13333333,0,0,-0.13333333,0,4000)" />
      <path
         id="path58"
         d="m 21025.1,20013.8 c -207.4,-132.9 -459.8,-199.5 -705.7,-180.8 122.3,8 243.2,24.4 361.7,55.6 118.7,30 232.5,74.1 344,125.2 v 0"
         style="fill:#000000;fill-opacity:1;fill-rule:nonzero;stroke:none"
         transform="matrix(0.13333333,0,0,-0.13333333,0,4000)" />
      <path
         id="path59"
         d="m 20189.5,20595.1 c -25.4,-78.9 -46.5,-158 -57.2,-240 -11.8,-81.8 -12.8,-163.7 -9.6,-246.4 -40.8,162 -16,341.3 66.8,486.4 v 0"
         style="fill:#000000;fill-opacity:1;fill-rule:nonzero;stroke:none"
         transform="matrix(0.13333333,0,0,-0.13333333,0,4000)" />
      <path
         id="path60"
         d="m 20282,20628.8 c -55,-66.6 -162.4,-87.2 -235.6,-39.3 83.7,-15.2 160.6,0.2 235.6,39.3 v 0"
         style="fill:#000000;fill-opacity:1;fill-rule:nonzero;stroke:none"
         transform="matrix(0.13333333,0,0,-0.13333333,0,4000)" />
      <path
         id="path61"
         d="m 20907.6,19293.9 c -73.7,-140.7 -226.3,-238.5 -384.9,-247.4 153.3,41.8 283.6,125 384.9,247.4 v 0"
         style="fill:#000000;fill-opacity:1;fill-rule:nonzero;stroke:none"
         transform="matrix(0.13333333,0,0,-0.13333333,0,4000)" />
      <path
         id="path62"
         d="m 20746.2,19127 c -196,-10 -394.2,104.8 -480.7,281.4 117.3,-159.6 284.5,-256.5 480.7,-281.4 v 0"
         style="fill:#000000;fill-opacity:1;fill-rule:nonzero;stroke:none"
         transform="matrix(0.13333333,0,0,-0.13333333,0,4000)" />
      <path
         id="path63"
         d="m 21091.9,18866.7 c -119.5,0 -264.1,-33.2 -442.8,-99.9 l -47.5,-17.7 c -192.6,-71.6 -344.7,-128.2 -461.3,-217.4 -149.9,-114.6 -183.2,-257.7 -190.7,-314 -16.4,-125 6.1,-258 29.9,-398.7 12.5,-74.2 25.5,-150.8 32.8,-228.1 25.4,-268.6 142.9,-456.1 330.8,-527.9 164.7,-62.9 413.5,-44.3 719.6,53.8 347,111.3 516,183.5 566.5,364.7 34.8,124.8 17,210 -5.5,317.8 -19.4,92.8 -41.4,198 -35.8,353.9 15.6,429.4 -136.2,576 -251.7,648.9 -68,43 -148,64.6 -244.3,64.6 z m -521.1,-1870.1 c -91.3,0 -171.3,12.8 -238.4,38.4 -199.1,76.1 -323.4,272.5 -350,553.1 -7.2,76.2 -20.1,152.3 -32.5,225.9 -24.2,143 -47,278.1 -30,407.7 7.9,59.9 43.4,212.4 202.2,333.8 120.2,92 274.1,149.2 469,221.7 l 47.5,17.7 c 332.5,124.2 552.6,134.2 713.6,32.6 v 0 c 121.8,-76.8 281.9,-230.5 265.7,-675.4 -5.5,-152.3 16.1,-255.5 35.1,-346.6 22.5,-107.5 41.9,-200.3 5.1,-332 -57.5,-206.2 -260.2,-280.7 -586.3,-385.2 -190.1,-61 -359.2,-91.7 -501,-91.7"
         style="fill:#000000;fill-opacity:1;fill-rule:nonzero;stroke:none"
         transform="matrix(0.13333333,0,0,-0.13333333,0,4000)" />
      <path
         id="path64"
         d="m 21359.6,17997.8 c -108.4,-123.4 -274.9,-216.4 -443.6,-187 -169.5,34.2 -284.9,192 -335.1,348.6 -34.5,106.6 -33.7,222.5 -4,328.4 -5.1,-27.1 -8.7,-54.3 -10.8,-81.6 -10.6,-136 28.2,-273.5 103.4,-386.6 58.8,-87.9 144.4,-166.4 250.5,-188 162.7,-30.6 324.9,55.5 439.6,166.2 v 0"
         style="fill:#000000;fill-opacity:1;fill-rule:nonzero;stroke:none"
         transform="matrix(0.13333333,0,0,-0.13333333,0,4000)" />
      <path
         id="path65"
         d="m 20743,18616.7 c -33.9,-118.2 -179.8,-187.5 -292.7,-138.6 29.4,-2.7 58.3,-2.1 86.3,2 85.7,12.4 159,64.7 206.4,136.6 v 0"
         style="fill:#000000;fill-opacity:1;fill-rule:nonzero;stroke:none"
         transform="matrix(0.13333333,0,0,-0.13333333,0,4000)" />
      <path
         id="path66"
         d="m 20818.7,17865.6 c 3.4,-140.8 -56.2,-284.7 -160,-380.2 38.3,58.3 72.8,117.8 99.3,182 27.3,63.9 45.3,130.1 60.7,198.2 v 0"
         style="fill:#000000;fill-opacity:1;fill-rule:nonzero;stroke:none"
         transform="matrix(0.13333333,0,0,-0.13333333,0,4000)" />
      <path
         id="path67"
         d="m 21019.3,17317.5 c -215.6,152 -481.9,214.1 -742.6,175.6 255.3,71.2 546.5,3 742.6,-175.6 v 0"
         style="fill:#000000;fill-opacity:1;fill-rule:nonzero;stroke:none"
         transform="matrix(0.13333333,0,0,-0.13333333,0,4000)" />
      <path
         id="path68"
         d="m 21190.9,17315 c -100.3,20.4 -191.5,-4.6 -261.9,-80.1 41.4,98 172.7,135.1 261.9,80.1 v 0"
         style="fill:#000000;fill-opacity:1;fill-rule:nonzero;stroke:none"
         transform="matrix(0.13333333,0,0,-0.13333333,0,4000)" />
      <path
         id="path69"
         d="m 21222.4,17032.4 c -163.9,0 -366.7,-31.5 -567.5,-120.6 -10.7,-4.8 -263.4,-119.4 -295.3,-349.2 -10.3,-74.3 -0.2,-225.2 106.8,-522.3 18.8,-52 29.6,-105.4 40.2,-157.1 14.8,-72.5 28.7,-140.9 62.3,-197.4 75,-125.7 283.9,-208.4 573.1,-226.8 241.1,-15.3 498.2,18.4 611.2,80.3 76.9,42 210.8,156 225.5,316.6 7.3,79.1 -9,125.9 -29.5,185.1 -19.1,54.9 -40.8,117.1 -48.2,219.4 -5.5,75.6 -0.2,122.4 4.4,163.7 5.3,46.4 9.8,86.5 -2.6,156.4 -31.7,178.3 -148.9,282.4 -162.1,293.7 l -0.8,0.6 c -27.2,23.2 -110.1,93.7 -303.1,136.6 -57.8,12.8 -131.1,21 -214.4,21 z m 35.8,-1607 c -39.4,0 -78.9,1.2 -118.1,3.7 -175.9,11.1 -487.3,57.4 -596.9,241.4 -36.3,60.8 -50.7,131.7 -66,206.7 -10.3,50.6 -21,103 -39,152.9 -87.6,243.2 -124,423.7 -108.3,536.7 34.2,246.1 301.5,367.4 312.9,372.4 309.5,137.4 624.7,140.5 800.5,101.5 200.3,-44.5 287.4,-118.7 316,-143 l 0.8,-0.7 c 14.1,-12 138.7,-122.6 172.2,-311.3 13.2,-74.2 8.4,-116.2 2.9,-165 -4.5,-40 -9.6,-85.3 -4.3,-158.1 7.2,-98.4 28.1,-158.6 46.6,-211.8 20.9,-60.1 39,-112.1 31.1,-197.6 -15.9,-173.2 -158.9,-295.3 -241,-340.2 -98.8,-54.1 -301.1,-87.6 -509.4,-87.6"
         style="fill:#000000;fill-opacity:1;fill-rule:nonzero;stroke:none"
         transform="matrix(0.13333333,0,0,-0.13333333,0,4000)" />
      <path
         id="path70"
         d="m 20960.1,16738.9 c 6.7,-96.5 30.8,-190.7 51.7,-284.8 11.3,-46.8 24.2,-93.1 44.5,-135.8 19.8,-41.5 47.2,-81.6 87.6,-104.5 84.6,-43.6 183,-50.3 276.9,-45.1 96,6.4 190.8,28.3 280.4,64.1 -86.3,-44.3 -181.5,-72.2 -278.9,-81.9 -97.3,-9 -201.5,-2.4 -289.7,43.5 -44.4,25.8 -74.8,69.5 -95.4,115.1 -20.3,45.3 -32.9,93.1 -42.4,140.8 -17.8,95.1 -36.9,191.5 -34.7,288.6 v 0"
         style="fill:#000000;fill-opacity:1;fill-rule:nonzero;stroke:none"
         transform="matrix(0.13333333,0,0,-0.13333333,0,4000)" />
      <path
         id="path71"
         d="m 21144.8,16207.9 c -21.1,-214.6 40.1,-419.8 167.1,-593.2 -152.3,150.6 -221.4,385.1 -167.1,593.2 v 0"
         style="fill:#000000;fill-opacity:1;fill-rule:nonzero;stroke:none"
         transform="matrix(0.13333333,0,0,-0.13333333,0,4000)" />
      <path
         id="path72"
         d="m 21142.6,16025.8 c -168.3,-96.2 -396.9,-67.7 -538.2,64.3 163.9,-104.4 354.3,-128.6 538.2,-64.3 v 0"
         style="fill:#000000;fill-opacity:1;fill-rule:nonzero;stroke:none"
         transform="matrix(0.13333333,0,0,-0.13333333,0,4000)" />
      <path
         id="path73"
         d="m 21079.1,16805 c -67.2,-70.9 -178.1,-99.7 -271.2,-69.9 95.4,2.7 186.4,26.1 271.2,69.9 v 0"
         style="fill:#000000;fill-opacity:1;fill-rule:nonzero;stroke:none"
         transform="matrix(0.13333333,0,0,-0.13333333,0,4000)" />
      <path
         id="path74"
         d="m 21227.1,15748.8 c -25.9,-65.3 -92.1,-114.7 -162.2,-120.3 58.6,35.6 111.2,74.5 162.2,120.3 v 0"
         style="fill:#000000;fill-opacity:1;fill-rule:nonzero;stroke:none"
         transform="matrix(0.13333333,0,0,-0.13333333,0,4000)" />
      <path
         id="path75"
         d="m 8854.14,13490.6 c -28.55,-175.4 -19.9,-428.4 133.88,-544.8 62.1,-44.7 180.28,-49.5 255.95,-48.6 95.07,3.6 192.89,20.4 274.25,72.9 -37.82,-30.7 -83.22,-50.8 -129.49,-65.4 -93.83,-27.8 -193.5,-32.9 -290.4,-19.5 -42.52,7 -87.97,16 -123.5,42.6 -162.83,124.1 -167.57,381.4 -120.69,562.8 v 0"
         style="fill:#000000;fill-opacity:1;fill-rule:nonzero;stroke:none"
         transform="matrix(0.13333333,0,0,-0.13333333,0,4000)" />
      <path
         id="path76"
         d="m 8520.87,12753.6 c 120.18,31 250.53,45.8 372.53,12.3 61.4,-17.2 120.09,-48.8 164.39,-95.6 44.48,-47.5 64.85,-113.3 70.57,-176.3 7.4,-83.8 -5.04,-167.4 -25.11,-248.4 10.22,82.2 17.47,165.4 7.03,246.4 -10,82.1 -44.07,155.5 -114.2,201.9 -138.18,94.6 -316.23,82.6 -475.21,59.7 v 0"
         style="fill:#000000;fill-opacity:1;fill-rule:nonzero;stroke:none"
         transform="matrix(0.13333333,0,0,-0.13333333,0,4000)" />
      <path
         id="path77"
         d="m 9000.97,12185.8 c 57.25,80.3 168.6,119.9 263.63,93.5 -95.68,-6.5 -185.28,-38.1 -263.63,-93.5 v 0"
         style="fill:#000000;fill-opacity:1;fill-rule:nonzero;stroke:none"
         transform="matrix(0.13333333,0,0,-0.13333333,0,4000)" />
      <path
         id="path78"
         d="m 8727.33,13547.4 c 78.74,-42.5 161.37,-59.8 250.28,-46.7 -79.97,-45.8 -191.3,-23.1 -250.28,46.7 v 0"
         style="fill:#000000;fill-opacity:1;fill-rule:nonzero;stroke:none"
         transform="matrix(0.13333333,0,0,-0.13333333,0,4000)" />
      <path
         id="path79"
         d="m 9012.24,12922.8 c 44.35,-64.6 39.01,-160.5 -11.74,-220.2 20.6,72.7 24.97,145.7 11.74,220.2 v 0"
         style="fill:#000000;fill-opacity:1;fill-rule:nonzero;stroke:none"
         transform="matrix(0.13333333,0,0,-0.13333333,0,4000)" />
      <path
         id="path80"
         d="m 8908.24,13756.1 c -251.93,0 -555.33,-79 -685.55,-303.5 -141.97,-244.7 -106.69,-363.2 -57.85,-527.2 21.34,-71.7 45.52,-152.9 58.42,-256.1 9.14,-73.1 13.63,-138.9 17.59,-197 14.35,-210.3 23.01,-337.2 224.37,-460.7 306.76,-188.3 846.27,-23.2 1062.13,122.1 l 5.56,3.8 c 102.17,68.7 242.09,162.8 275.19,351.8 23.07,131.7 -11.78,228.4 -60.01,362.2 -12.95,36 -26.34,73.1 -40.05,114.7 -23.13,70.3 -26.94,121.6 -30.63,171.2 -5.87,79.1 -11.94,160.9 -97.81,328.5 -86.18,168.2 -337.49,281.9 -640.25,289.8 -10.26,0.3 -20.65,0.4 -31.11,0.4 z m -95.25,-1859.3 c -123.28,0 -253.76,21.9 -363.45,89.2 -214.56,131.6 -224.13,271.9 -238.62,484.3 -3.94,57.7 -8.4,123 -17.43,195.3 -12.59,100.7 -36.4,180.7 -57.41,251.2 -49.06,164.8 -87.81,295 60.66,550.9 l 12.98,-7.6 -12.98,7.6 c 142.22,245.1 477.27,324.9 743.39,318 313.57,-8.2 575.06,-128.3 666.17,-306.2 88.64,-173 94.94,-257.8 101.03,-339.9 3.71,-50 7.22,-97.2 29.2,-164 13.58,-41.2 26.91,-78.1 39.79,-113.9 49.79,-138.2 85.77,-238 61.34,-377.5 -35.31,-201.7 -187.38,-304 -288,-371.6 l -5.56,-3.8 c -121.39,-81.7 -319.69,-156.4 -505.2,-190.3 -66.85,-12.2 -144.83,-21.7 -225.91,-21.7"
         style="fill:#000000;fill-opacity:1;fill-rule:nonzero;stroke:none"
         transform="matrix(0.13333333,0,0,-0.13333333,0,4000)" />
      <path
         id="path81"
         d="m 9269.99,11727.5 c 84.02,-16.3 167.55,-13 250.13,9.4 -70.47,-52.8 -175.86,-56.6 -250.13,-9.4 v 0"
         style="fill:#000000;fill-opacity:1;fill-rule:nonzero;stroke:none"
         transform="matrix(0.13333333,0,0,-0.13333333,0,4000)" />
      <path
         id="path82"
         d="m 8875.92,11339.4 c 70.14,-10.2 140.95,-13.4 211.63,-13 69.41,1.6 141.05,4.9 207.33,25.4 28.44,8.6 53.84,22 71.51,45.8 2.29,3.7 8.37,11.8 10.61,15.4 2.01,3.5 6.81,13 8.86,16.6 10.24,23.3 16.5,48.6 19.22,73.9 7.43,69.6 -5.6,140.5 -24.14,208.1 27.89,-65.9 45.86,-137.3 41.63,-209.6 -2.13,-36.6 -11.48,-74.4 -31.18,-105.6 -4.52,-7.2 -11.21,-16.7 -17.08,-22.7 -18.05,-22 -46.61,-34.8 -72.56,-43.3 -125.55,-36.4 -300.43,-25 -425.83,9 v 0"
         style="fill:#000000;fill-opacity:1;fill-rule:nonzero;stroke:none"
         transform="matrix(0.13333333,0,0,-0.13333333,0,4000)" />
      <path
         id="path83"
         d="m 9325.38,11361.7 c 94.36,-54.5 177.88,-129.3 239.34,-219.9 61.7,-88.6 112.39,-209.5 60.94,-314.9 -101.48,-185.4 -404.99,-220.8 -595.24,-208.6 176.52,5.4 393.86,33.7 528.84,156.8 188.3,178.6 -73.75,480.3 -233.88,586.6 v 0"
         style="fill:#000000;fill-opacity:1;fill-rule:nonzero;stroke:none"
         transform="matrix(0.13333333,0,0,-0.13333333,0,4000)" />
      <path
         id="path84"
         d="m 9623.07,11001.5 c 148.83,-43.8 304.14,-29.5 442.13,41.7 -120.56,-100.2 -304.93,-117 -442.13,-41.7 v 0"
         style="fill:#000000;fill-opacity:1;fill-rule:nonzero;stroke:none"
         transform="matrix(0.13333333,0,0,-0.13333333,0,4000)" />
      <path
         id="path85"
         d="m 9565.67,10775.4 c 164.43,-91.7 253.36,-297.1 217.2,-480.5 1.74,185.7 -73.25,361.3 -217.2,480.5 v 0"
         style="fill:#000000;fill-opacity:1;fill-rule:nonzero;stroke:none"
         transform="matrix(0.13333333,0,0,-0.13333333,0,4000)" />
      <path
         id="path86"
         d="m 9661.7,10207.8 c 44.38,86.5 153.7,135.6 247.77,110.9 -93.65,-8.8 -178.89,-46.8 -247.77,-110.9 v 0"
         style="fill:#000000;fill-opacity:1;fill-rule:nonzero;stroke:none"
         transform="matrix(0.13333333,0,0,-0.13333333,0,4000)" />
      <path
         id="path87"
         d="m 8938.41,11781.2 6.97,-13.3 -0.7,-0.4 c -71.72,-37.5 -428.71,-243.9 -413.12,-620.5 7.73,-186.9 59.39,-278.4 137.57,-417 29.12,-51.6 62.11,-110.1 96.93,-181.4 189.13,-387.8 288.83,-486.7 397.14,-526.7 66.72,-24.6 143.7,-35.7 225.95,-35.7 272.86,0 604.42,121.5 817.75,272.7 160,113.4 247.1,236.5 245.4,346.7 -2.7,176.9 -44,255.7 -96.2,355.5 -32.4,62 -69.2,132.3 -101.7,237.5 -124.4,402.7 -274.91,537.4 -419.04,623 -351.36,208.8 -803.02,-8.1 -889.98,-53.7 z m 449.25,-1824.6 c -85.44,0 -165.4,11.5 -234.84,37.1 -136.31,50.3 -240.71,187 -413.72,541.7 -34.42,70.6 -67.19,128.6 -96.1,179.9 -77.43,137.2 -133.38,236.4 -141.41,430.4 -16.34,394.7 354.64,609.4 429.17,648.4 l 0.68,0.4 c 89.45,46.9 554.16,269.8 919.25,52.9 149.28,-88.7 305.01,-227.6 432.41,-639.9 31.7,-102.6 67.8,-171.6 99.6,-232.5 51.9,-99.2 96.7,-184.9 99.6,-368.9 1.9,-120.4 -89.7,-252.4 -258,-371.6 -217.6,-154.2 -556.42,-277.9 -836.64,-277.9"
         style="fill:#000000;fill-opacity:1;fill-rule:nonzero;stroke:none"
         transform="matrix(0.13333333,0,0,-0.13333333,0,4000)" />
      <path
         id="path88"
         d="m 9519.54,9366.7 c 24.07,4.7 57.7,12.2 81.78,14.1 54.33,6.9 112.05,7.9 166.44,2.2 l 41.55,-5.1 c 24.39,-5 58.37,-10.7 81.73,-18.3 23.7,-5.6 56.29,-18.7 79.39,-27.3 l 38.17,-17.8 c 273.2,-135.7 381.5,-420.4 302.7,-709.1 55,284.2 -48.1,555.7 -312.33,690.2 l -36.63,17.9 c -22.43,8.8 -53.64,21.9 -76.64,28.1 -22.44,8.1 -55.74,14.8 -79.21,20.4 l -40.49,6.4 c -53.35,7.8 -110.25,9.8 -164.15,6.5 -24.04,-0.6 -58.26,-5.7 -82.31,-8.2 v 0"
         style="fill:#000000;fill-opacity:1;fill-rule:nonzero;stroke:none"
         transform="matrix(0.13333333,0,0,-0.13333333,0,4000)" />
      <path
         id="path89"
         d="m 9777.25,8530.3 c 116.19,118.6 301.55,159.3 461.15,120.7 81.5,-20 155.9,-70 204.2,-138.7 48.9,-68 74,-150.8 76.3,-232.4 -11.9,80.7 -41.4,158.5 -90.7,221.6 -149.2,197 -473.31,175.8 -650.95,28.8 v 0"
         style="fill:#000000;fill-opacity:1;fill-rule:nonzero;stroke:none"
         transform="matrix(0.13333333,0,0,-0.13333333,0,4000)" />
      <path
         id="path90"
         d="m 10282.3,8989.5 c 195.3,-47.8 396.9,-19.3 571.5,80.4 -156,-127.9 -386.2,-160.2 -571.5,-80.4 v 0"
         style="fill:#000000;fill-opacity:1;fill-rule:nonzero;stroke:none"
         transform="matrix(0.13333333,0,0,-0.13333333,0,4000)" />
      <path
         id="path91"
         d="m 10058.8,9723.5 c 67.2,-137.5 33.8,-317.6 -77.36,-422.6 84.36,126.8 112.06,274.1 77.36,422.6 v 0"
         style="fill:#000000;fill-opacity:1;fill-rule:nonzero;stroke:none"
         transform="matrix(0.13333333,0,0,-0.13333333,0,4000)" />
      <path
         id="path92"
         d="m 9872.4,9706.7 c 119.11,-11.2 233.1,19.8 330.4,89.3 -75.6,-95.3 -217.12,-133.4 -330.4,-89.3 v 0"
         style="fill:#000000;fill-opacity:1;fill-rule:nonzero;stroke:none"
         transform="matrix(0.13333333,0,0,-0.13333333,0,4000)" />
      <path
         id="path93"
         d="m 10340.1,8181 c 80.4,106.9 233.7,155.1 360.2,110.1 -133.3,11.2 -255.6,-27.4 -360.2,-110.1 v 0"
         style="fill:#000000;fill-opacity:1;fill-rule:nonzero;stroke:none"
         transform="matrix(0.13333333,0,0,-0.13333333,0,4000)" />
      <path
         id="path94"
         d="m 9353.73,9717.9 v 0 c -106.15,-126.3 -119.61,-242.7 -139.98,-419 -5.08,-44 -10.84,-93.8 -18.54,-147.7 -50.7,-354.9 18.54,-583.9 284.94,-942.5 334.58,-450.4 714.75,-321.5 823.25,-271.3 l 1.9,0.9 c 72.7,33.4 143.8,63.8 212.6,93.2 333.5,142.4 597,254.9 623.6,538.9 16.9,180 -24.2,390.1 -133.3,681.3 -146.6,391.3 -225.3,474.2 -308.6,561.9 l -7.6,8 c -119.9,126.5 -360.5,200.2 -628.1,192.3 -300.72,-9 -559.6,-116.9 -710.17,-296 z M 10044.9,7851 c -170.03,0 -387.77,69.1 -588.83,339.8 -271.98,366.1 -342.58,600.5 -290.56,964.7 7.64,53.5 13.38,103.1 18.43,146.8 21,181.7 34.87,301.7 146.82,434.9 v 0 c 156.07,185.7 422.98,297.5 732.34,306.7 275.8,8.1 525,-69.1 650.7,-201.7 l 7.5,-8 c 85.5,-90 166.2,-175 315,-572 110.7,-295.6 152.4,-509.9 135.1,-694.5 -28.3,-301.9 -299,-417.5 -641.7,-563.8 -68.6,-29.3 -139.5,-59.6 -211.9,-92.9 l -1.8,-0.8 c -48,-22.2 -146.8,-59.2 -271.1,-59.2"
         style="fill:#000000;fill-opacity:1;fill-rule:nonzero;stroke:none"
         transform="matrix(0.13333333,0,0,-0.13333333,0,4000)" />
      <path
         id="path95"
         d="m 10739.2,7733.5 c 99.9,-17.1 200.3,-62.7 257.6,-150.1 56.9,-86.6 61.8,-196.2 62,-296.1 -2.4,-66.9 -5.5,-135.6 -26.8,-199.3 12,65.3 10,132.9 9.1,199.1 -8,242.9 -57.6,368 -301.9,446.4 v 0"
         style="fill:#000000;fill-opacity:1;fill-rule:nonzero;stroke:none"
         transform="matrix(0.13333333,0,0,-0.13333333,0,4000)" />
      <path
         id="path96"
         d="m 10794.7,6933.6 c 89.6,126.2 252.5,202 406.9,179.8 -155.6,-11.7 -291.9,-75.5 -406.9,-179.8 v 0"
         style="fill:#000000;fill-opacity:1;fill-rule:nonzero;stroke:none"
         transform="matrix(0.13333333,0,0,-0.13333333,0,4000)" />
      <path
         id="path97"
         d="m 10449,7608.8 c 146.2,19.1 267.3,89.3 350.2,212 -51.1,-138.6 -204.5,-228.2 -350.2,-212 v 0"
         style="fill:#000000;fill-opacity:1;fill-rule:nonzero;stroke:none"
         transform="matrix(0.13333333,0,0,-0.13333333,0,4000)" />
      <path
         id="path98"
         d="m 11012,7522.3 c 0.7,96.8 89,185.2 186.3,183.1 -21.9,-8.6 -42.5,-18.1 -61.6,-29.7 -58.7,-35 -99.1,-90.3 -124.7,-153.4 v 0"
         style="fill:#000000;fill-opacity:1;fill-rule:nonzero;stroke:none"
         transform="matrix(0.13333333,0,0,-0.13333333,0,4000)" />
      <path
         id="path99"
         d="m 10843,7995 c -8.5,0 -15.6,-0.2 -20.9,-0.3 -15.4,-0.5 -379.9,-14.2 -644.8,-247.9 -131.9,-116.4 -411.05,-428 -155.6,-807.1 97.9,-145.4 306,-239.1 556.6,-250.6 319.2,-14.7 628.8,102.4 788.8,298.4 180.2,220.6 206.4,544.2 60.8,752.6 -164.1,234.9 -482,254.9 -584.9,254.9 z m -211.1,-1337.1 c -18.3,0 -36.6,0.4 -55,1.3 -263.9,12.1 -475.4,108.2 -580.11,263.7 -100.51,149.2 -131.39,304.7 -91.79,462.1 34.18,135.8 121.5,268.7 252.5,384.3 l 9.9,-11.3 -9.9,11.3 c 272.9,240.8 647.8,254.9 663.6,255.3 72.7,2.3 444.9,-0.2 631.4,-267.3 76.8,-110 111.4,-251.9 97.3,-399.4 -13.5,-141.8 -70.2,-280.1 -159.4,-389.4 -156.5,-191.7 -449.9,-310.6 -758.5,-310.6"
         style="fill:#000000;fill-opacity:1;fill-rule:nonzero;stroke:none"
         transform="matrix(0.13333333,0,0,-0.13333333,0,4000)" />
      <path
         id="path100"
         d="m 11027.7,6337.6 c 114.6,19.6 253.4,86.4 320.8,183.6 10.2,14.9 18.1,31.3 25.9,48.2 -3,-18.3 -8.3,-36.4 -16.3,-53.6 -52.9,-109.9 -210.9,-187.9 -330.4,-178.2 v 0"
         style="fill:#000000;fill-opacity:1;fill-rule:nonzero;stroke:none"
         transform="matrix(0.13333333,0,0,-0.13333333,0,4000)" />
      <path
         id="path101"
         d="m 11806.4,6163.5 c -49.8,-47.8 -98.5,-95.1 -143.1,-147.5 -45.2,-51.7 -84.9,-106.8 -124.9,-163 50.4,129.3 147.5,241.7 268,310.5 v 0"
         style="fill:#000000;fill-opacity:1;fill-rule:nonzero;stroke:none"
         transform="matrix(0.13333333,0,0,-0.13333333,0,4000)" />
      <path
         id="path102"
         d="m 11294.8,6450.7 c 154.9,4.8 305,-94 369.9,-233.7 22.1,-46.3 36.1,-96.3 39.7,-146.8 -12.9,48.9 -31.1,95.6 -55.3,138.7 -71.9,131.5 -206.3,220.5 -354.3,241.8 v 0"
         style="fill:#000000;fill-opacity:1;fill-rule:nonzero;stroke:none"
         transform="matrix(0.13333333,0,0,-0.13333333,0,4000)" />
      <path
         id="path103"
         d="m 11469,6737.9 c -184.5,0 -387.1,-53.6 -542.5,-143.5 -131.4,-76.1 -292,-214.1 -310.7,-439.8 -25.6,-309 108.4,-504.4 421.8,-614.9 94.4,-33.3 184.4,-49.7 268.8,-49.7 217.3,0 397.6,109 521.7,320.5 68.8,117.3 120.5,279.5 138.4,433.8 18.6,159.9 -1.2,288 -54.4,351.4 -97.8,116.6 -293.2,141.7 -439.9,142.2 -1.1,0 -2.1,0 -3.2,0 z m -161,-1278.3 c -88.1,0 -181.9,17.1 -280.4,51.8 -323.7,114.1 -468.2,325.3 -441.7,645.7 19.8,238.6 188,383.6 325.6,463.3 159.7,92.4 367.9,147.5 557.5,147.5 1.1,0 2.2,0 3.3,0 153.1,-0.6 357.6,-27.5 462.8,-152.9 58.4,-69.7 80.7,-206.1 61.2,-374.1 -18.3,-158.3 -71.6,-324.9 -142.4,-445.6 -129.9,-221.5 -318.6,-335.7 -545.9,-335.7"
         style="fill:#000000;fill-opacity:1;fill-rule:nonzero;stroke:none"
         transform="matrix(0.13333333,0,0,-0.13333333,0,4000)" />
      <path
         id="path104"
         d="m 11782,5299.9 c 115.1,-185.9 284.1,-336.5 485.6,-422 66.8,-28.5 136.5,-50.5 208.1,-66.5 -294.4,27.5 -568.7,220.4 -693.7,488.5 v 0"
         style="fill:#000000;fill-opacity:1;fill-rule:nonzero;stroke:none"
         transform="matrix(0.13333333,0,0,-0.13333333,0,4000)" />
      <path
         id="path105"
         d="m 12521.2,5856.3 c -337.2,-43.8 -640.8,-208.2 -833.1,-451.2 -56.6,-71.6 -79.5,-177.4 -62.8,-290.4 22.3,-150.3 107.1,-286.6 232.7,-373.9 149.7,-104 375.5,-142.9 561.9,-96.9 121.6,30.1 212.7,93.1 256.5,177.4 164.4,316.6 98.2,823.7 72.1,903.1 -33,100.4 -79,151.2 -227.3,131.9 z m -267.5,-1262 c -148.7,0 -299.1,42.8 -412.8,121.8 -132.4,92.1 -221.8,235.7 -245.3,394.2 -17.9,121.1 7.2,235.4 69,313.4 197,249 507.9,417.6 852.7,462.4 v 0 c 166.9,21.6 224.5,-45.3 259.7,-152.4 27.9,-84.7 97.4,-596.2 -74,-926.2 -47.8,-92.1 -145.8,-160.5 -275.9,-192.7 -55.9,-13.8 -114.6,-20.5 -173.4,-20.5"
         style="fill:#000000;fill-opacity:1;fill-rule:nonzero;stroke:none"
         transform="matrix(0.13333333,0,0,-0.13333333,0,4000)" />
      <path
         id="path106"
         d="m 12931.6,4630.6 c 202.3,-134.2 435.2,-216.1 677,-237.9 -244.1,-10.1 -492.8,77.6 -677,237.9 v 0"
         style="fill:#000000;fill-opacity:1;fill-rule:nonzero;stroke:none"
         transform="matrix(0.13333333,0,0,-0.13333333,0,4000)" />
      <path
         id="path107"
         d="m 12754,4519.4 c 211.8,-156.3 463.6,-254.5 725.3,-281.3 87,-9.1 174.8,-10.7 262.8,-6.1 -349,-54.4 -724.4,50.6 -988.1,287.4 v 0"
         style="fill:#000000;fill-opacity:1;fill-rule:nonzero;stroke:none"
         transform="matrix(0.13333333,0,0,-0.13333333,0,4000)" />
      <path
         id="path108"
         d="m 13524.8,5410.6 c -111.5,0 -261.2,-91.1 -427.4,-261.4 -155.8,-159.7 -279.5,-341.1 -305.4,-405.5 -37.3,-92.5 -32.2,-197.2 14.1,-295 62.8,-132.3 192.9,-234.9 366.4,-289 166.8,-52 363.3,-34.9 489.1,42.6 78.7,48.5 127.6,118.5 141.4,202.3 73.4,444.2 14.4,946.4 -239.2,1002 v 0 c -12.4,2.7 -25.4,4 -39,4 z m -150.4,-1311.3 c -70.4,0 -142.4,10.4 -210.8,31.7 -181.6,56.7 -318.2,164.9 -384.6,304.9 -50,105.4 -55.3,218.7 -14.9,319 26.9,66.6 153.4,252.9 311.9,415.3 137.1,140.5 334.2,300.7 494.2,265.7 129.1,-28.3 220.5,-158.4 264.3,-376.3 37.4,-185.7 36.7,-426.2 -1.9,-659.9 -15.3,-92.6 -69,-169.7 -155.3,-222.9 -82.8,-51.1 -190.8,-77.5 -302.9,-77.5"
         style="fill:#000000;fill-opacity:1;fill-rule:nonzero;stroke:none"
         transform="matrix(0.13333333,0,0,-0.13333333,0,4000)" />
      <path
         id="path109"
         d="m 14149.7,4430.2 c 191.8,-74.1 399.6,-78.9 594.7,-14.1 -182.9,-95.7 -416.6,-90 -594.7,14.1 v 0"
         style="fill:#000000;fill-opacity:1;fill-rule:nonzero;stroke:none"
         transform="matrix(0.13333333,0,0,-0.13333333,0,4000)" />
      <path
         id="path110"
         d="m 13986.4,4267.4 c 291,-115.6 615.2,-117.6 908.1,-7.1 -69.8,-35.1 -144.2,-61.5 -220.8,-78.8 -229.4,-52.7 -478.6,-23.3 -687.3,85.9 v 0"
         style="fill:#000000;fill-opacity:1;fill-rule:nonzero;stroke:none"
         transform="matrix(0.13333333,0,0,-0.13333333,0,4000)" />
      <path
         id="path111"
         d="m 14479.7,5302.1 v 0 c -112.3,-10.3 -240.3,-121.4 -342.6,-297.2 -102.7,-176.7 -165.7,-394.9 -168.3,-583.5 -1.1,-78.3 31.5,-156.6 89.5,-214.9 81.5,-82 211.4,-124.9 375.6,-123.4 264.7,2 383,55.4 452.3,203.8 62.2,133.2 28.3,325.5 -11.1,463.3 -49.3,172.6 -125.4,324.1 -175.3,391.9 -82.4,112 -139.1,167.4 -220.1,160 z m -52.9,-1249 c -169,0 -303.7,45.7 -389.8,132.3 -63.6,64 -99.4,150.1 -98.2,236.4 5.8,418.8 282.5,886.7 538.2,910.2 104.4,9.6 170.8,-68.7 246.9,-172.1 110.3,-149.9 307.9,-632 189.5,-885.6 -74.2,-159.1 -204.1,-219.1 -479.3,-221.2 -2.4,0 -4.9,0 -7.3,0"
         style="fill:#000000;fill-opacity:1;fill-rule:nonzero;stroke:none"
         transform="matrix(0.13333333,0,0,-0.13333333,0,4000)" />
      <path
         id="path112"
         d="m 21145.9,13490.6 c 46.9,-181.3 42.1,-438.9 -120.7,-562.8 -35.6,-26.6 -81,-35.6 -123.5,-42.6 -96.9,-13.4 -196.6,-8.2 -290.4,19.5 -46.3,14.6 -91.7,34.7 -129.5,65.4 81.3,-52.5 179.2,-69.3 274.2,-72.9 75.5,-0.9 193.9,3.9 256,48.6 153.8,116.5 162.4,369.2 133.9,544.8 v 0"
         style="fill:#000000;fill-opacity:1;fill-rule:nonzero;stroke:none"
         transform="matrix(0.13333333,0,0,-0.13333333,0,4000)" />
      <path
         id="path113"
         d="m 21479.1,12753.6 c -158.9,23 -337,34.9 -475.2,-59.7 -70.1,-46.4 -104.2,-119.8 -114.2,-201.9 -10.4,-81 -3.2,-164.2 7,-246.4 -20,81 -32.5,164.6 -25.1,248.4 5.8,63 26.1,128.8 70.6,176.3 44.3,46.8 103,78.4 164.4,95.6 122,33.5 252.3,18.7 372.5,-12.3 v 0"
         style="fill:#000000;fill-opacity:1;fill-rule:nonzero;stroke:none"
         transform="matrix(0.13333333,0,0,-0.13333333,0,4000)" />
      <path
         id="path114"
         d="m 20999,12185.8 c -78.3,55.4 -167.9,87 -263.6,93.5 95,26.4 206.4,-13.2 263.6,-93.5 v 0"
         style="fill:#000000;fill-opacity:1;fill-rule:nonzero;stroke:none"
         transform="matrix(0.13333333,0,0,-0.13333333,0,4000)" />
      <path
         id="path115"
         d="m 21272.7,13547.4 c -59,-69.8 -170.3,-92.5 -250.3,-46.7 88.9,-13.1 171.5,4.2 250.3,46.7 v 0"
         style="fill:#000000;fill-opacity:1;fill-rule:nonzero;stroke:none"
         transform="matrix(0.13333333,0,0,-0.13333333,0,4000)" />
      <path
         id="path116"
         d="m 20987.8,12922.8 c -13.3,-74.5 -8.9,-147.5 11.7,-220.2 -50.7,59.7 -56.1,155.6 -11.7,220.2 v 0"
         style="fill:#000000;fill-opacity:1;fill-rule:nonzero;stroke:none"
         transform="matrix(0.13333333,0,0,-0.13333333,0,4000)" />
      <path
         id="path117"
         d="m 21091.8,13756.1 c -10.5,0 -20.9,-0.1 -31.2,-0.4 -302.7,-7.9 -554,-121.6 -640.2,-289.8 -85.9,-167.6 -91.9,-249.4 -97.8,-328.5 -3.7,-49.6 -7.5,-100.9 -30.6,-171.2 -13.7,-41.6 -27.1,-78.7 -40.1,-114.7 -48.2,-133.8 -83.1,-230.5 -60,-362.2 33.1,-189 173,-283.1 275.2,-351.8 l 5.6,-3.8 c 146.6,-98.7 442.6,-206.5 713.5,-206.5 127.9,0 250.2,24 348.6,84.4 201.3,123.5 210,250.4 224.3,460.7 4,58.1 8.5,123.9 17.6,197 12.9,103.2 37.1,184.4 58.5,256.1 48.8,164 84.1,282.5 -57.9,527.2 -130.2,224.4 -433.6,303.5 -685.5,303.5 z m 95.2,-1859.3 c -81.1,0 -159,9.5 -225.9,21.7 -185.5,33.9 -383.8,108.6 -505.2,190.3 l -5.6,3.8 c -100.6,67.7 -252.6,169.9 -288,371.6 -24.4,139.5 11.6,239.3 61.4,377.5 12.9,35.8 26.2,72.7 39.8,113.9 22,66.8 25.5,114 29.2,164 6.1,82.1 12.4,166.9 101,339.9 91.1,177.9 352.6,298 666.2,306.2 266.2,7 601.1,-72.9 743.4,-318 148.4,-255.9 109.7,-386.1 60.6,-550.9 -21,-70.5 -44.8,-150.5 -57.4,-251.2 -9,-72.3 -13.5,-137.6 -17.4,-195.3 -14.5,-212.4 -24.1,-352.7 -238.6,-484.3 -109.7,-67.3 -240.2,-89.2 -363.5,-89.2"
         style="fill:#000000;fill-opacity:1;fill-rule:nonzero;stroke:none"
         transform="matrix(0.13333333,0,0,-0.13333333,0,4000)" />
      <path
         id="path118"
         d="m 20730,11727.5 c -74.3,-47.2 -179.7,-43.4 -250.1,9.4 82.6,-22.4 166.1,-25.7 250.1,-9.4 v 0"
         style="fill:#000000;fill-opacity:1;fill-rule:nonzero;stroke:none"
         transform="matrix(0.13333333,0,0,-0.13333333,0,4000)" />
      <path
         id="path119"
         d="m 21124.1,11339.4 c -125.4,-34 -300.2,-45.5 -425.8,-9 -26,8.5 -54.6,21.3 -72.6,43.3 -5.9,6 -12.6,15.5 -17.1,22.7 -19.7,31.2 -29,68.9 -31.2,105.6 -4.2,72.3 13.8,143.7 41.7,209.6 -18.6,-67.6 -31.6,-138.5 -24.2,-208.1 2.7,-25.3 9,-50.7 19.2,-73.9 2.2,-3.7 6.9,-13.1 8.9,-16.6 2.2,-3.5 8.3,-11.8 10.6,-15.4 17.7,-23.8 43.1,-37.2 71.5,-45.8 66.3,-20.5 137.9,-23.8 207.3,-25.4 70.7,-0.4 141.5,2.8 211.7,13 v 0"
         style="fill:#000000;fill-opacity:1;fill-rule:nonzero;stroke:none"
         transform="matrix(0.13333333,0,0,-0.13333333,0,4000)" />
      <path
         id="path120"
         d="m 20674.6,11361.7 c -160,-106.3 -422.2,-407.7 -233.9,-586.6 135.1,-123.2 352.2,-151.4 528.9,-156.8 -190.3,-12.1 -493.5,23 -595.3,208.6 -51.4,105.4 -0.7,226.3 61,314.9 61.4,90.6 145,165.4 239.3,219.9 v 0"
         style="fill:#000000;fill-opacity:1;fill-rule:nonzero;stroke:none"
         transform="matrix(0.13333333,0,0,-0.13333333,0,4000)" />
      <path
         id="path121"
         d="m 20376.9,11001.5 c -137.2,-75.3 -321.5,-58.5 -442.1,41.7 138,-71.2 293.3,-85.5 442.1,-41.7 v 0"
         style="fill:#000000;fill-opacity:1;fill-rule:nonzero;stroke:none"
         transform="matrix(0.13333333,0,0,-0.13333333,0,4000)" />
      <path
         id="path122"
         d="m 20434.3,10775.4 c -143.9,-119.3 -218.9,-294.8 -217.2,-480.5 -36.1,183.3 52.8,388.8 217.2,480.5 v 0"
         style="fill:#000000;fill-opacity:1;fill-rule:nonzero;stroke:none"
         transform="matrix(0.13333333,0,0,-0.13333333,0,4000)" />
      <path
         id="path123"
         d="m 20338.3,10207.8 c -68.9,64.1 -154.1,102.1 -247.8,110.9 94.1,24.7 203.4,-24.4 247.8,-110.9 v 0"
         style="fill:#000000;fill-opacity:1;fill-rule:nonzero;stroke:none"
         transform="matrix(0.13333333,0,0,-0.13333333,0,4000)" />
      <path
         id="path124"
         d="m 20511.6,11910.8 c -115.9,0 -236.4,-23.5 -347,-89.2 -144.1,-85.6 -294.6,-220.3 -419,-623 -32.5,-105.2 -69.3,-175.5 -101.7,-237.5 -52.2,-99.8 -93.5,-178.6 -96.2,-355.5 -1.7,-110.2 85.4,-233.3 245.4,-346.7 277.6,-196.7 755.6,-343.3 1043.7,-237 108.3,40 208,139 397.1,526.7 34.9,71.3 67.9,129.8 97,181.4 78.1,138.6 129.8,230.1 137.5,417 15.6,376.6 -341.4,583 -413.1,620.5 l -0.7,0.4 c -59.6,31.2 -290.5,142.9 -543,142.9 z m 100.7,-1954.2 c -280.2,0 -619,123.7 -836.6,277.9 -168.3,119.2 -259.9,251.2 -258,371.6 2.9,184 47.7,269.7 99.6,368.9 31.8,60.9 67.9,129.9 99.6,232.5 127.4,412.3 283.1,551.2 432.4,639.9 365.1,216.9 829.8,-6 919.3,-52.9 l 0.6,-0.4 c 74.6,-39 445.6,-253.7 429.2,-648.4 -8,-194 -64,-293.2 -141.4,-430.4 -28.9,-51.3 -61.7,-109.3 -96.1,-179.9 -173,-354.7 -277.4,-491.4 -413.7,-541.7 -69.4,-25.6 -149.5,-37.1 -234.9,-37.1"
         style="fill:#000000;fill-opacity:1;fill-rule:nonzero;stroke:none"
         transform="matrix(0.13333333,0,0,-0.13333333,0,4000)" />
      <path
         id="path125"
         d="m 20480.5,9366.7 c -24.3,2.6 -58.3,7.6 -82.4,8.2 -53.9,3.3 -110.7,1.3 -164.1,-6.5 l -40.5,-6.4 c -23.6,-5.7 -56.6,-12.3 -79.2,-20.4 -22.9,-6.1 -54.3,-19.2 -76.6,-28.1 l -36.7,-17.9 c -264.1,-134.3 -367.3,-406.3 -312.3,-690.2 -78.8,288.9 29.5,573.3 302.7,709.1 l 38.2,17.8 c 23.2,8.6 55.5,21.6 79.4,27.3 23.2,7.6 57.5,13.4 81.7,18.3 l 41.5,5.1 c 54.4,5.7 112.2,4.7 166.5,-2.2 24,-1.7 58,-9.6 81.8,-14.1 v 0"
         style="fill:#000000;fill-opacity:1;fill-rule:nonzero;stroke:none"
         transform="matrix(0.13333333,0,0,-0.13333333,0,4000)" />
      <path
         id="path126"
         d="m 20222.7,8530.3 c -177.6,147 -501.7,168.3 -650.9,-28.8 -49.3,-63.1 -78.8,-140.9 -90.7,-221.6 2.3,81.6 27.4,164.4 76.3,232.4 48.3,68.7 122.7,118.7 204.2,138.7 159.6,38.6 345,-2.1 461.1,-120.7 v 0"
         style="fill:#000000;fill-opacity:1;fill-rule:nonzero;stroke:none"
         transform="matrix(0.13333333,0,0,-0.13333333,0,4000)" />
      <path
         id="path127"
         d="m 19717.7,8989.5 c -185.3,-79.8 -415.5,-47.5 -571.5,80.4 174.6,-99.8 376.2,-128.2 571.5,-80.4 v 0"
         style="fill:#000000;fill-opacity:1;fill-rule:nonzero;stroke:none"
         transform="matrix(0.13333333,0,0,-0.13333333,0,4000)" />
      <path
         id="path128"
         d="m 19941.2,9723.5 c -34.7,-148.5 -7,-295.8 77.4,-422.6 -111.2,105 -144.6,285.1 -77.4,422.6 v 0"
         style="fill:#000000;fill-opacity:1;fill-rule:nonzero;stroke:none"
         transform="matrix(0.13333333,0,0,-0.13333333,0,4000)" />
      <path
         id="path129"
         d="m 20127.6,9706.7 c -113.3,-44.1 -254.8,-6 -330.4,89.3 97.3,-69.5 211.3,-100.5 330.4,-89.3 v 0"
         style="fill:#000000;fill-opacity:1;fill-rule:nonzero;stroke:none"
         transform="matrix(0.13333333,0,0,-0.13333333,0,4000)" />
      <path
         id="path130"
         d="m 19659.9,8181 c -104.6,82.7 -227,121.3 -360.2,110.1 126.5,45 279.8,-3.2 360.2,-110.1 v 0"
         style="fill:#000000;fill-opacity:1;fill-rule:nonzero;stroke:none"
         transform="matrix(0.13333333,0,0,-0.13333333,0,4000)" />
      <path
         id="path131"
         d="m 19896.8,10014.5 c -251.6,0 -474.8,-72.6 -588.8,-192.9 l -7.6,-8 c -83.3,-87.7 -162,-170.6 -308.6,-561.9 -109.1,-291.2 -150.2,-501.3 -133.3,-681.3 26.6,-284 290.1,-396.5 623.6,-538.9 68.8,-29.4 139.9,-59.8 212.6,-93.2 l 1.9,-0.9 c 108.5,-50.2 488.7,-179.1 823.3,271.3 266.3,358.6 335.6,587.6 284.9,942.5 -7.7,53.9 -13.5,103.7 -18.5,147.7 -20.4,176.3 -33.9,292.7 -140,419 -150.6,179.2 -409.5,287 -710.2,296 -13.2,0.4 -26.3,0.6 -39.3,0.6 z m 58.3,-2163.5 c -124.3,0 -223.1,37 -271.1,59.2 l -1.8,0.8 c -72.4,33.3 -143.3,63.6 -211.9,92.9 -342.7,146.3 -613.4,261.9 -641.7,563.8 -17.3,184.6 24.4,398.9 135.1,694.5 148.8,397 229.5,482 315,572 l 7.5,8 c 125.7,132.6 375,209.8 650.7,201.7 309.4,-9.2 576.3,-121 732.3,-306.7 112,-133.2 125.9,-253.2 146.9,-434.9 5,-43.7 10.7,-93.3 18.4,-146.8 52,-364.2 -18.6,-598.6 -290.6,-964.7 -201,-270.6 -418.8,-339.8 -588.8,-339.8"
         style="fill:#000000;fill-opacity:1;fill-rule:nonzero;stroke:none"
         transform="matrix(0.13333333,0,0,-0.13333333,0,4000)" />
      <path
         id="path132"
         d="m 19260.8,7733.5 c -244.3,-78.3 -293.9,-203.9 -301.9,-446.4 -0.9,-66.2 -2.9,-133.8 9.1,-199.1 -21.3,63.7 -24.4,132.5 -26.8,199.3 0.2,99.9 5.1,209.5 62,296.1 57.3,87.4 157.7,133 257.6,150.1 v 0"
         style="fill:#000000;fill-opacity:1;fill-rule:nonzero;stroke:none"
         transform="matrix(0.13333333,0,0,-0.13333333,0,4000)" />
      <path
         id="path133"
         d="m 19205.3,6933.6 c -115,104.3 -251.3,168.1 -406.9,179.8 154.4,22.1 317.3,-53.6 406.9,-179.8 v 0"
         style="fill:#000000;fill-opacity:1;fill-rule:nonzero;stroke:none"
         transform="matrix(0.13333333,0,0,-0.13333333,0,4000)" />
      <path
         id="path134"
         d="m 19551,7608.8 c -145.7,-16.2 -299.2,73.4 -350.2,212 83,-122.7 204,-192.9 350.2,-212 v 0"
         style="fill:#000000;fill-opacity:1;fill-rule:nonzero;stroke:none"
         transform="matrix(0.13333333,0,0,-0.13333333,0,4000)" />
      <path
         id="path135"
         d="m 18988,7522.3 c -34.5,87.7 -97.4,151.1 -186.3,183.1 97.3,2.1 185.6,-86.3 186.3,-183.1 v 0"
         style="fill:#000000;fill-opacity:1;fill-rule:nonzero;stroke:none"
         transform="matrix(0.13333333,0,0,-0.13333333,0,4000)" />
      <path
         id="path136"
         d="m 19157,7995 c -102.9,0 -420.8,-20 -584.9,-254.9 -145.5,-208.4 -119.4,-532 60.7,-752.6 151,-184.9 435.3,-299.6 735.1,-299.6 17.9,0 35.8,0.4 53.8,1.2 250.6,11.5 458.7,105.2 556.6,250.6 255.5,379.1 -23.7,690.7 -155.6,807.1 v 0 c -264.9,233.7 -629.4,247.4 -644.8,247.9 -5.3,0.1 -12.4,0.3 -20.9,0.3 z m 211.1,-1337.1 c -308.6,0 -602,118.9 -758.5,310.6 -89.2,109.3 -145.9,247.6 -159.4,389.4 -14.1,147.5 20.5,289.4 97.3,399.4 186.5,267.1 558.7,269.6 631.3,267.3 15.9,-0.4 390.8,-14.5 663.7,-255.3 131,-115.6 218.3,-248.5 252.5,-384.3 39.6,-157.4 8.7,-312.9 -91.8,-462.1 -104.7,-155.5 -316.2,-251.6 -580.1,-263.7 -18.4,-0.9 -36.7,-1.3 -55,-1.3"
         style="fill:#000000;fill-opacity:1;fill-rule:nonzero;stroke:none"
         transform="matrix(0.13333333,0,0,-0.13333333,0,4000)" />
      <path
         id="path137"
         d="m 18972.3,6337.6 c -119.4,-9.7 -277.4,68.3 -330.4,178.2 -8,17.2 -13.3,35.3 -16.3,53.6 7.8,-16.9 15.7,-33.3 25.9,-48.2 67.4,-97.1 206.2,-164 320.8,-183.6 v 0"
         style="fill:#000000;fill-opacity:1;fill-rule:nonzero;stroke:none"
         transform="matrix(0.13333333,0,0,-0.13333333,0,4000)" />
      <path
         id="path138"
         d="m 18193.6,6163.5 c 120.5,-68.8 217.6,-181.2 268,-310.5 -40,56.2 -79.7,111.3 -124.9,163 -44.6,52.4 -93.3,99.7 -143.1,147.5 v 0"
         style="fill:#000000;fill-opacity:1;fill-rule:nonzero;stroke:none"
         transform="matrix(0.13333333,0,0,-0.13333333,0,4000)" />
      <path
         id="path139"
         d="m 18705.2,6450.7 c -148,-21.3 -282.4,-110.3 -354.3,-241.8 -24.2,-43.1 -42.4,-89.8 -55.3,-138.7 3.6,50.5 17.6,100.5 39.7,146.8 64.9,139.7 215,238.5 369.9,233.7 v 0"
         style="fill:#000000;fill-opacity:1;fill-rule:nonzero;stroke:none"
         transform="matrix(0.13333333,0,0,-0.13333333,0,4000)" />
      <path
         id="path140"
         d="m 18531,6737.9 c -1.1,0 -2.1,0 -3.2,0 -146.7,-0.5 -342.1,-25.6 -439.9,-142.2 -53.2,-63.4 -73,-191.5 -54.4,-351.4 17.9,-154.3 69.7,-316.5 138.5,-433.8 172.1,-293.6 452.9,-389.8 790.4,-270.8 313.4,110.5 447.4,305.9 421.8,614.9 -18.7,225.7 -179.3,363.7 -310.7,439.8 -155.4,89.9 -358,143.5 -542.5,143.5 z m 161,-1278.3 c -227.3,0 -416,114.2 -545.9,335.7 -70.8,120.7 -124.1,287.3 -142.4,445.6 -19.5,168 2.8,304.4 61.2,374.1 105.2,125.4 309.7,152.3 462.8,152.9 l 0.1,-15 -0.1,15 c 1.1,0 2.2,0 3.3,0 189.6,0 397.7,-55.1 557.5,-147.5 137.6,-79.7 305.8,-224.7 325.6,-463.3 26.5,-320.4 -118,-531.6 -441.7,-645.7 -98.5,-34.7 -192.4,-51.8 -280.4,-51.8"
         style="fill:#000000;fill-opacity:1;fill-rule:nonzero;stroke:none"
         transform="matrix(0.13333333,0,0,-0.13333333,0,4000)" />
      <path
         id="path141"
         d="m 18218,5299.9 c -93.8,-201.1 -271.7,-360.4 -479,-438.3 -69.3,-26 -141.6,-43.5 -214.7,-50.2 107.2,23.9 210.2,61.1 305.6,114.6 159.7,87.9 291.7,219.4 388.1,373.9 v 0"
         style="fill:#000000;fill-opacity:1;fill-rule:nonzero;stroke:none"
         transform="matrix(0.13333333,0,0,-0.13333333,0,4000)" />
      <path
         id="path142"
         d="m 17422.1,5860.3 c -104.3,0 -142.2,-49.6 -170.6,-135.9 -26.1,-79.4 -92.3,-586.5 72.1,-903.1 43.8,-84.3 134.9,-147.3 256.5,-177.4 186.4,-46 412.2,-7.1 561.9,96.9 125.6,87.3 210.4,223.6 232.7,373.9 16.7,113 -6.2,218.8 -62.8,290.4 -192.3,243 -495.9,407.4 -833.1,451.2 v 0 c -20.8,2.7 -39.6,4 -56.7,4 z m 324.2,-1266 c -58.9,0 -117.4,6.7 -173.4,20.5 -130.1,32.2 -228.1,100.6 -275.9,192.7 -171.5,330 -101.9,841.5 -74,926.2 35.2,107.1 92.8,174 259.7,152.4 344.8,-44.8 655.6,-213.3 852.7,-462.4 61.8,-78 86.9,-192.3 69,-313.4 -23.5,-158.5 -112.9,-302.1 -245.3,-394.2 -113.7,-79 -264.1,-121.8 -412.8,-121.8"
         style="fill:#000000;fill-opacity:1;fill-rule:nonzero;stroke:none"
         transform="matrix(0.13333333,0,0,-0.13333333,0,4000)" />
      <path
         id="path143"
         d="m 17068.4,4630.6 c -184.2,-160.3 -432.9,-248 -677,-237.9 241.8,21.8 474.7,103.7 677,237.9 v 0"
         style="fill:#000000;fill-opacity:1;fill-rule:nonzero;stroke:none"
         transform="matrix(0.13333333,0,0,-0.13333333,0,4000)" />
      <path
         id="path144"
         d="m 17246,4519.4 c -263.7,-236.8 -639.1,-341.8 -988.1,-287.4 88,-4.6 175.8,-3 262.8,6.1 261.7,26.8 513.5,125 725.3,281.3 v 0"
         style="fill:#000000;fill-opacity:1;fill-rule:nonzero;stroke:none"
         transform="matrix(0.13333333,0,0,-0.13333333,0,4000)" />
      <path
         id="path145"
         d="m 16436.2,5406.6 c -253.6,-55.6 -312.6,-557.8 -239.2,-1002 13.8,-83.8 62.7,-153.8 141.5,-202.3 125.7,-77.5 322.2,-94.7 489,-42.6 173.5,54.1 303.6,156.7 366.4,289 46.3,97.8 51.4,202.5 14.1,295 -25.9,64.4 -149.6,245.8 -305.4,405.5 -186.5,191 -352,282.4 -466.4,257.4 z m 189.4,-1307.3 c -112.1,0 -220.1,26.4 -302.9,77.5 -86.3,53.2 -140,130.3 -155.3,222.9 -38.6,233.7 -39.3,474.2 -1.9,659.9 43.8,217.9 135.2,348 264.3,376.3 l 3.2,-14.7 -3.2,14.7 c 160,35 357,-125.2 494.2,-265.7 158.5,-162.4 285,-348.7 311.9,-415.3 40.4,-100.3 35.1,-213.6 -14.9,-319 -66.4,-140 -203,-248.2 -384.6,-304.9 -68.4,-21.3 -140.4,-31.7 -210.8,-31.7"
         style="fill:#000000;fill-opacity:1;fill-rule:nonzero;stroke:none"
         transform="matrix(0.13333333,0,0,-0.13333333,0,4000)" />
      <path
         id="path146"
         d="m 15850.3,4430.2 c -178.1,-104.1 -411.8,-109.8 -594.7,-14.1 195.1,-64.8 402.9,-60 594.7,14.1 v 0"
         style="fill:#000000;fill-opacity:1;fill-rule:nonzero;stroke:none"
         transform="matrix(0.13333333,0,0,-0.13333333,0,4000)" />
      <path
         id="path147"
         d="m 16013.6,4267.4 c -208.7,-109.2 -457.9,-138.6 -687.3,-85.9 -76.6,17.3 -151,43.7 -220.8,78.8 292.9,-110.5 617.1,-108.5 908.1,7.1 v 0"
         style="fill:#000000;fill-opacity:1;fill-rule:nonzero;stroke:none"
         transform="matrix(0.13333333,0,0,-0.13333333,0,4000)" />
      <path
         id="path148"
         d="m 15506.1,5302.8 c -73.6,0 -128.4,-55.4 -205.9,-160.7 -49.9,-67.8 -126,-219.3 -175.3,-391.9 -39.4,-137.8 -73.3,-330.1 -11.1,-463.3 69.3,-148.4 187.6,-201.8 452.3,-203.8 164.2,-1.6 294.1,41.4 375.6,123.4 58,58.3 90.6,136.6 89.5,214.9 -2.6,188.6 -65.6,406.8 -168.3,583.5 -102.3,175.8 -230.3,286.9 -342.6,297.2 -4.8,0.5 -9.6,0.7 -14.2,0.7 z m 67.1,-1249.7 c -2.4,0 -4.9,0 -7.3,0 -275.1,2.1 -405.1,62.1 -479.3,221.2 -118.4,253.6 79.2,735.7 189.5,885.6 76.1,103.4 142.7,181.7 246.9,172.1 255.7,-23.5 532.4,-491.4 538.2,-910.2 1.2,-86.3 -34.6,-172.4 -98.2,-236.4 -86.1,-86.6 -220.8,-132.3 -389.8,-132.3"
         style="fill:#000000;fill-opacity:1;fill-rule:nonzero;stroke:none"
         transform="matrix(0.13333333,0,0,-0.13333333,0,4000)" />
    </g>
  </g>
</svg>
